<?xml version="1.0" encoding="UTF-8"?>
<svg version="1.1" xmlns="http://www.w3.org/2000/svg" width="335" height="312">
<path d="M0 0 C1.79244141 0.02513672 1.79244141 0.02513672 3.62109375 0.05078125 C30.55956464 1.14077718 56.5822306 14.92369999 76 33 C76.91313965 33.84739746 76.91313965 33.84739746 77.84472656 34.71191406 C96.79065517 52.49729574 109.64455472 72.61093676 116 98 C116.38514771 99.44246094 116.38514771 99.44246094 116.77807617 100.9140625 C119.26395943 111.09159587 119.59455879 120.94078498 119.5625 131.375 C119.56301361 132.25240845 119.56352722 133.12981689 119.5640564 134.03381348 C119.52732835 148.77266031 117.97518376 162.02004267 113 176 C112.60554687 177.17046875 112.21109375 178.3409375 111.8046875 179.546875 C110.69437676 182.48182228 109.43377285 185.2093322 108 188 C107.69755371 188.59651367 107.39510742 189.19302734 107.08349609 189.80761719 C91.83943764 219.49923757 66.34219793 243.1644847 35 255 C34.25363281 255.28617188 33.50726563 255.57234375 32.73828125 255.8671875 C3.0237851 266.52266301 -34.65681717 265.03925853 -63.44140625 252.07421875 C-75.76897727 246.20565709 -86.60211914 238.83819873 -97 230 C-97.99 229.195625 -97.99 229.195625 -99 228.375 C-119.08655428 211.87533041 -131.95805122 187.83912276 -138 163 C-138.2165625 162.1646875 -138.433125 161.329375 -138.65625 160.46875 C-141.18530162 150.20377578 -141.18125627 139.5144492 -141.1875 129 C-141.19974609 127.91460937 -141.21199219 126.82921875 -141.22460938 125.7109375 C-141.23791537 118.2773195 -140.46529579 111.28355681 -139 104 C-138.85925049 103.28537598 -138.71850098 102.57075195 -138.57348633 101.83447266 C-132.80384726 74.14445533 -117.73258554 49.11689875 -96 31 C-95.19949219 30.30003906 -94.39898437 29.60007812 -93.57421875 28.87890625 C-66.52420747 5.75615587 -34.72382408 -0.68338158 0 0 Z M-53.1875 58.0625 C-56.92499743 64.11982342 -56.03594369 71.09015069 -55.625 77.9375 C-55.58117187 78.79279297 -55.53734375 79.64808594 -55.4921875 80.52929688 C-55.28280794 84.34174977 -54.9899598 88.07347939 -54.47265625 91.859375 C-50.90225487 118.74853932 -55.30674653 144.78366859 -65.9609375 169.42578125 C-68.49844649 175.71231667 -69.70683051 181.3039726 -68 188 C-66.57324827 190.38028291 -66.57324827 190.38028291 -65 192 C-61.60186438 191.51455205 -59.56348711 190.70988327 -57.40625 187.9921875 C-49.68403789 175.4238933 -48.00082961 164.86075812 -47.83566284 150.29568481 C-47.63270113 132.75755157 -46.11160151 116.27248039 -42.61621094 99.04443359 C-42.00530181 96.02619399 -41.42424643 93.0044652 -40.86328125 89.9765625 C-40.70512939 89.12658691 -40.54697754 88.27661133 -40.3840332 87.40087891 C-39.19050151 79.93921924 -40.17572286 73.30524301 -41.8125 66 C-41.97766113 65.24509277 -42.14282227 64.49018555 -42.31298828 63.71240234 C-43.38782802 59.04607248 -43.38782802 59.04607248 -47 56 C-51.01602429 55.54265809 -51.01602429 55.54265809 -53.1875 58.0625 Z M-3 61 C-6.19942729 64.43178793 -7.80508776 68.74325612 -9.625 73 C-9.93695313 73.7115625 -10.24890625 74.423125 -10.5703125 75.15625 C-12.62556793 79.90459875 -14.09947738 84.0310918 -14.18945312 89.25854492 C-14.20617065 90.09008591 -14.22288818 90.92162689 -14.2401123 91.77836609 C-14.25368774 92.67005997 -14.26726318 93.56175385 -14.28125 94.48046875 C-14.29965942 95.40789383 -14.31806885 96.33531891 -14.33703613 97.29084778 C-14.39569977 100.25633488 -14.44849934 103.2218804 -14.5 106.1875 C-14.56815182 110.07693069 -14.64194404 113.96620051 -14.71875 117.85546875 C-14.73232544 118.73704147 -14.74590088 119.6186142 -14.7598877 120.52690125 C-14.90453279 127.8580115 -15.33983453 135.12808945 -17.1875 142.25 C-17.4453125 143.24902344 -17.703125 144.24804688 -17.96875 145.27734375 C-18.79471844 148.25896468 -19.65195057 151.22537135 -20.53125 154.19140625 C-20.80300049 155.11598633 -21.07475098 156.04056641 -21.35473633 156.99316406 C-21.90031526 158.84023107 -22.45453361 160.68477319 -23.01831055 162.52636719 C-25.71240664 171.63178369 -24.8144637 179.5130301 -23.5625 188.8125 C-23.36043945 190.38547852 -23.36043945 190.38547852 -23.15429688 191.99023438 C-22.63630824 197.15484068 -22.63630824 197.15484068 -21 202 C-19.04909096 201.75668577 -19.04909096 201.75668577 -17 201 C-15.59200424 198.42461535 -14.45863873 196.01919938 -13.375 193.3125 C-12.92640625 192.24999023 -12.92640625 192.24999023 -12.46875 191.16601562 C-11.61471862 189.11974132 -10.78360182 187.07433783 -10 185 C-9.64671631 184.15268311 -9.29343262 183.30536621 -8.92944336 182.43237305 C-7.62828486 177.62728051 -7.62958213 172.98977396 -7.54296875 168.03125 C-7.48184807 165.8268026 -7.41997306 163.62237602 -7.35742188 161.41796875 C-7.26977144 157.98527672 -7.18852569 154.55279452 -7.12182617 151.11962891 C-6.74437607 132.81796687 -4.39221798 116.01990337 1.375 98.625 C4.45016845 88.24630647 3.86572399 70.73144799 -1 61 C-1.66 61 -2.32 61 -3 61 Z M37.4765625 72.58203125 C35.95218626 74.75863504 35.95218626 74.75863504 34.6027832 77.19848633 C33.59635502 78.95762775 32.544909 80.69252055 31.43188477 82.38623047 C26.03809022 91.43722292 26.11068497 100.12923396 25.97851562 110.42626953 C25.90877469 115.44014495 25.74011224 120.4500146 25.55859375 125.4609375 C25.52289276 126.45260925 25.48719177 127.44428101 25.45040894 128.46600342 C24.94960083 140.48763871 22.92859857 152.07508294 20.60424805 163.86767578 C17.85116979 178.13918851 17.63051316 191.17357139 23 205 C25.82883747 206.41441874 27.87376745 206.31900332 31 206 C34.08316852 203.02314764 34.87468476 199.88734774 35.15258789 195.7019043 C35.17160903 189.25496542 34.63598373 182.98451124 33.8815918 176.58447266 C32.15195786 161.89351922 31.77997344 147.76203826 33 133 C33.0924948 131.54297173 33.18494644 130.08594071 33.27734375 128.62890625 C34.45781623 115.24579688 39.56019753 103.1412386 45.15478516 91.04077148 C46.69293712 87.32690313 47.15694965 84.00820578 47.1875 80 C47.20876953 78.7315625 47.20876953 78.7315625 47.23046875 77.4375 C46.98543096 74.84591384 46.30584901 73.22975008 45 71 C41.8125712 70.31697954 39.83108194 70.13695337 37.4765625 72.58203125 Z " fill="#1ED660" transform="translate(184,18)"/>
<path d="M0 0 C1.79244141 0.02513672 1.79244141 0.02513672 3.62109375 0.05078125 C30.55956464 1.14077718 56.5822306 14.92369999 76 33 C76.91313965 33.84739746 76.91313965 33.84739746 77.84472656 34.71191406 C96.79065517 52.49729574 109.64455472 72.61093676 116 98 C116.25676514 98.96164063 116.51353027 99.92328125 116.77807617 100.9140625 C119.26395943 111.09159587 119.59455879 120.94078498 119.5625 131.375 C119.56301361 132.25240845 119.56352722 133.12981689 119.5640564 134.03381348 C119.52732835 148.77266031 117.97518376 162.02004267 113 176 C112.60554687 177.17046875 112.21109375 178.3409375 111.8046875 179.546875 C110.69437676 182.48182228 109.43377285 185.2093322 108 188 C107.69755371 188.59651367 107.39510742 189.19302734 107.08349609 189.80761719 C92.09194741 219.00741158 66.30025526 244.00629641 35 255 C33.34080104 255.36871088 31.67546665 255.71416721 30 256 C29.67 255.01 29.34 254.02 29 253 C31.93703729 251.85297813 34.87470857 250.7075888 37.8125 249.5625 C38.64587891 249.23701172 39.47925781 248.91152344 40.33789062 248.57617188 C41.54155273 248.10727539 41.54155273 248.10727539 42.76953125 247.62890625 C43.50792236 247.34088135 44.24631348 247.05285645 45.00708008 246.75610352 C46.65660167 246.13028355 48.32628709 245.5579043 50 245 C50 244.34 50 243.68 50 243 C51.65 242.67 53.3 242.34 55 242 C55 241.34 55 240.68 55 240 C56.65 239.67 58.3 239.34 60 239 C60.33 238.01 60.66 237.02 61 236 C62.62390477 234.61490475 64.30140333 233.29241051 66 232 C67.14875461 230.98245513 68.29444034 229.96143815 69.4375 228.9375 C71.73341726 226.93670065 73.44922682 225.78402557 76.25 224.4375 C79.54367302 222.71580729 80.24104002 221.21201388 82 218 C83.62339805 216.29115995 85.29319053 214.62553283 87 213 C92.56459892 207.57451605 96.93195353 202.7264868 100.10546875 195.63671875 C101 194 101 194 103 193 C104.10632465 189.66758892 104.99199292 186.29703042 105.90234375 182.90625 C106.26457031 181.9471875 106.62679687 180.988125 107 180 C107.99 179.67 108.98 179.34 110 179 C109.97679687 178.16855469 109.95359375 177.33710938 109.9296875 176.48046875 C109.91164063 175.39378906 109.89359375 174.30710938 109.875 173.1875 C109.85179687 172.10855469 109.82859375 171.02960938 109.8046875 169.91796875 C110 167 110 167 112 164 C112.66 164 113.32 164 114 164 C113.83951172 162.87464844 113.83951172 162.87464844 113.67578125 161.7265625 C113.06719338 156.53066176 112.62249833 152.22005131 114.4375 147.25 C118.00092531 136.90298981 116.02178199 124.78787803 115.1875 114.0625 C115.08272339 112.6245105 115.08272339 112.6245105 114.97583008 111.1574707 C114.32928773 101.40267666 114.32928773 101.40267666 110 93 C109.84141197 91.44055103 109.72321421 89.8769121 109.625 88.3125 C109.24158223 83.912624 108.17704619 80.88082148 106 77 C106 76.01 106 75.02 106 74 C104.68 74 103.36 74 102 74 C100.11304374 69.71146306 98.41807378 65.47238653 97 61 C96.34 61 95.68 61 95 61 C93.5625 58.84765625 93.5625 58.84765625 92 56.0625 C90.13922105 52.37612792 90.13922105 52.37612792 87 50 C87 49.01 87 48.02 87 47 C86.01 47 85.02 47 84 47 C82.61096733 45.37946188 81.28667172 43.70294787 80 42 C76.15345703 37.81405618 71.80612542 34.41776855 67.34765625 30.91796875 C65 29 65 29 62.4375 26.3125 C58.01690875 22.11860574 52.41952653 19.6913295 47 17 C47 16.34 47 15.68 47 15 C46.195625 14.9175 45.39125 14.835 44.5625 14.75 C40.03226803 13.79626695 36.18779965 11.92783191 32 10 C26.13314504 7.47118321 20.28169306 6.14427572 14.01513672 5.00170898 C9.09528945 4.09528945 9.09528945 4.09528945 8 3 C5.07802754 2.88644196 2.18059216 2.83581161 -0.7421875 2.83203125 C-1.62149933 2.82870285 -2.50081116 2.82537445 -3.4067688 2.82194519 C-5.27133662 2.81687163 -7.13591356 2.814537 -9.00048828 2.81469727 C-11.85594665 2.81251456 -14.71101651 2.79437396 -17.56640625 2.77539062 C-19.37499867 2.77245606 -21.18359294 2.77047169 -22.9921875 2.76953125 C-23.84851776 2.76234573 -24.70484802 2.75516022 -25.58712769 2.74775696 C-26.38450348 2.75083359 -27.18187927 2.75391022 -28.00341797 2.75708008 C-29.05479446 2.75494255 -29.05479446 2.75494255 -30.12741089 2.75276184 C-32.33382008 2.90403429 -32.33382008 2.90403429 -35 5 C-38.30415594 5.85158658 -41.62789717 6.52650121 -44.96875 7.21875 C-48.14781344 7.86057948 -48.14781344 7.86057948 -51 10 C-52.98046875 10.4921875 -52.98046875 10.4921875 -55.1875 10.875 C-62.67415154 12.44731777 -68.44826305 16.19012986 -74.68359375 20.484375 C-77.7572973 22.49549975 -80.97358733 24.16894776 -84.25 25.82421875 C-86.32635698 26.96057549 -86.32635698 26.96057549 -87 30 C-88.65 30.33 -90.3 30.66 -92 31 C-92 31.66 -92 32.32 -92 33 C-92.94875 33.4125 -93.8975 33.825 -94.875 34.25 C-98.27868536 36.1560638 -98.40939074 36.7193684 -100 40 C-101.97321053 41.3726682 -103.97543152 42.70427617 -106 44 C-109.76426807 47.07985569 -111.6146432 50.78867866 -113.75390625 55.07421875 C-115 57 -115 57 -118 58 C-118.70710678 59.64991582 -119.36562656 61.3207762 -120 63 C-120.94746094 64.36511719 -120.94746094 64.36511719 -121.9140625 65.7578125 C-124.02766639 69.04300207 -125.21841955 71.98807592 -126.4375 75.6875 C-127.92127573 80.06577976 -129.51117222 84.14295324 -131.625 88.25 C-134.36394549 93.96829998 -135.18517437 99.84056177 -136.01220703 106.07128906 C-136.28381391 108.05627201 -136.63511249 110.03002927 -137 112 C-137.99 112.495 -137.99 112.495 -139 113 C-140.89184721 86.51413907 -123.63521261 60.85511445 -107.375 41.625 C-103.87258436 37.72347189 -100.02199559 34.35284942 -96 31 C-95.19949219 30.30003906 -94.39898437 29.60007812 -93.57421875 28.87890625 C-66.52420747 5.75615587 -34.72382408 -0.68338158 0 0 Z " fill="#44C072" transform="translate(184,18)"/>
<path d="M0 0 C4.08761707 3.00560079 7.42760319 7.91574785 8.36395264 12.96109009 C8.49180535 15.07443721 8.50300145 17.15278914 8.4609375 19.26953125 C8.45956284 20.41285164 8.45956284 20.41285164 8.4581604 21.57926941 C8.45215757 23.17685237 8.43651229 24.77442585 8.41162109 26.37182617 C8.37483987 28.82317193 8.37060407 31.27301493 8.37109375 33.72460938 C8.36127133 35.28126312 8.34961815 36.83790663 8.3359375 38.39453125 C8.33371185 39.12783157 8.33148621 39.8611319 8.32919312 40.61665344 C8.23224874 45.76775126 8.23224874 45.76775126 6 48 C5.4763864 50.25247648 5.4763864 50.25247648 5.21875 52.875 C5.09886719 53.86113281 4.97898438 54.84726563 4.85546875 55.86328125 C4.73816406 56.89839844 4.62085938 57.93351562 4.5 59 C3.15821073 70.48630591 3.15821073 70.48630591 1.9375 75.60546875 C0.14044899 84.15171041 0.57959717 93.09596087 0.46826172 101.79125977 C0.43446005 104.19046409 0.38941146 106.589278 0.34375 108.98828125 C0.3384729 109.71856033 0.3331958 110.44883942 0.32775879 111.20124817 C0.24891823 115.24540766 -0.24415118 118.35266448 -2 122 C-2.46019531 123.22009766 -2.46019531 123.22009766 -2.9296875 124.46484375 C-4.83633384 129.4520633 -6.84777894 133.69196456 -10 138 C-10.66 138.99 -11.32 139.98 -12 141 C-15.05070398 141.70672679 -17.93361111 141.59472667 -21 141 C-24.30789537 137.94019678 -25.82184235 135.11390907 -26.203125 130.58984375 C-26.21859375 129.71457031 -26.2340625 128.83929688 -26.25 127.9375 C-26.27578125 127.05964844 -26.3015625 126.18179688 -26.328125 125.27734375 C-26.21984375 124.52582031 -26.1115625 123.77429688 -26 123 C-24.515 122.01 -24.515 122.01 -23 121 C-22.2833793 118.68152126 -21.61757973 116.34680297 -21 114 C-20.34 113.01 -19.68 112.02 -19 111 C-18.65558648 108.85295515 -18.65558648 108.85295515 -18.5625 106.5625 C-18.21715025 102.65062917 -17.34608752 101.12811669 -15 98 C-14.62484297 95.70269007 -14.43790092 93.44470436 -14.30859375 91.12109375 C-14 89 -14 89 -12 86 C-11.67078264 83.23084856 -11.67078264 83.23084856 -11.68115234 80.05981445 C-11.66128265 78.83877518 -11.64141296 77.6177359 -11.62094116 76.35969543 C-11.60938995 75.04087875 -11.59783875 73.72206207 -11.5859375 72.36328125 C-11.56722653 70.99992194 -11.54765317 69.63657421 -11.5272522 68.27323914 C-11.47591716 64.68780345 -11.43629901 61.10233022 -11.39910889 57.51672363 C-11.35907769 53.85675762 -11.30798135 50.19694799 -11.2578125 46.53710938 C-11.16103705 39.3581802 -11.07663768 32.17917539 -11 25 C-11.66 25 -12.32 25 -13 25 C-13.3675795 17.19914627 -13.45445547 9.19248565 -10 2 C-6.6844108 -0.2103928 -3.94750642 -0.4934383 0 0 Z M-7.1875 5.0625 C-10.92499743 11.11982342 -10.03594369 18.09015069 -9.625 24.9375 C-9.58117187 25.79279297 -9.53734375 26.64808594 -9.4921875 27.52929688 C-9.28280794 31.34174977 -8.9899598 35.07347939 -8.47265625 38.859375 C-4.90225487 65.74853932 -9.30674653 91.78366859 -19.9609375 116.42578125 C-22.49844649 122.71231667 -23.70683051 128.3039726 -22 135 C-20.57324827 137.38028291 -20.57324827 137.38028291 -19 139 C-15.60186438 138.51455205 -13.56348711 137.70988327 -11.40625 134.9921875 C-3.68403789 122.4238933 -2.00082961 111.86075812 -1.83566284 97.29568481 C-1.63270113 79.75755157 -0.11160151 63.27248039 3.38378906 46.04443359 C3.99469819 43.02619399 4.57575357 40.0044652 5.13671875 36.9765625 C5.29487061 36.12658691 5.45302246 35.27661133 5.6159668 34.40087891 C6.80949849 26.93921924 5.82427714 20.30524301 4.1875 13 C4.02233887 12.24509277 3.85717773 11.49018555 3.68701172 10.71240234 C2.61217198 6.04607248 2.61217198 6.04607248 -1 3 C-5.01602429 2.54265809 -5.01602429 2.54265809 -7.1875 5.0625 Z " fill="#49D37B" transform="translate(138,71)"/>
<path d="M0 0 C0.04898438 0.81984375 0.09796875 1.6396875 0.1484375 2.484375 C0.22320312 3.56203125 0.29796875 4.6396875 0.375 5.75 C0.44460937 6.81734375 0.51421875 7.8846875 0.5859375 8.984375 C0.80897672 11.90646751 0.80897672 11.90646751 2.01147461 13.88793945 C3.17209553 16.36769534 3.24402188 18.08069366 3.23046875 20.80859375 C3.22853516 21.72060547 3.22660156 22.63261719 3.22460938 23.57226562 C3.20624023 24.99055664 3.20624023 24.99055664 3.1875 26.4375 C3.18685547 27.37916016 3.18621094 28.32082031 3.18554688 29.29101562 C3.15764567 33.68390488 2.96105824 37.69800612 2 42 C1.34 42 0.68 42 0 42 C-0.33 45.63 -0.66 49.26 -1 53 C-1.66 53 -2.32 53 -3 53 C-3.12117188 54.24136719 -3.24234375 55.48273438 -3.3671875 56.76171875 C-3.53607548 58.40368526 -3.7053676 60.04561023 -3.875 61.6875 C-3.99294922 62.91243164 -3.99294922 62.91243164 -4.11328125 64.16210938 C-4.19707031 64.95810547 -4.28085938 65.75410156 -4.3671875 66.57421875 C-4.47716064 67.66609497 -4.47716064 67.66609497 -4.58935547 68.7800293 C-5 71 -5 71 -6.00871277 73.31265259 C-7.05402521 76.14646058 -7.2567794 78.21081669 -7.27124023 81.2175293 C-7.28142685 82.23175461 -7.29161346 83.24597992 -7.30210876 84.29093933 C-7.30424881 85.37442154 -7.30638885 86.45790375 -7.30859375 87.57421875 C-7.33373548 89.87304961 -7.35913375 92.17187768 -7.38476562 94.47070312 C-7.41360876 98.091872 -7.43763141 101.71299268 -7.45629883 105.33422852 C-7.47784813 108.83113569 -7.5172586 112.32749794 -7.55859375 115.82421875 C-7.55870956 116.91377365 -7.55882538 118.00332855 -7.5589447 119.12590027 C-7.57228348 120.1306691 -7.58562225 121.13543793 -7.59936523 122.1706543 C-7.60697121 123.50038521 -7.60697121 123.50038521 -7.61473083 124.85697937 C-7.74186966 125.56417618 -7.86900848 126.27137299 -8 127 C-9.485 127.99 -9.485 127.99 -11 129 C-11.165 129.99 -11.33 130.98 -11.5 132 C-11.665 132.99 -11.83 133.98 -12 135 C-13.485 135.99 -13.485 135.99 -15 137 C-15.4125 138.134375 -15.825 139.26875 -16.25 140.4375 C-18.24377916 144.49626472 -18.24377916 144.49626472 -21.6875 145.9375 C-22.780625 146.288125 -23.87375 146.63875 -25 147 C-27.1583195 140.92972642 -27.20852314 135.40629424 -27 129 C-27.66 129 -28.32 129 -29 129 C-30.27491216 126.45017567 -30.02596616 124.83534576 -29.87890625 121.9921875 C-29.83056641 121.00605469 -29.78222656 120.01992187 -29.73242188 119.00390625 C-29.67634766 117.97136719 -29.62027344 116.93882812 -29.5625 115.875 C-29.51029297 114.83472656 -29.45808594 113.79445313 -29.40429688 112.72265625 C-29.27439054 110.14814884 -29.13941748 107.57400704 -29 105 C-28.34 105 -27.68 105 -27 105 C-27.03480469 104.39671875 -27.06960937 103.7934375 -27.10546875 103.171875 C-27.13253906 102.37265625 -27.15960938 101.5734375 -27.1875 100.75 C-27.23970703 99.56664062 -27.23970703 99.56664062 -27.29296875 98.359375 C-27 96 -27 96 -25.5546875 94.30859375 C-23.08094662 90.63527501 -23.23954511 86.65241133 -22.9375 82.3125 C-22.80635106 80.5789967 -22.66966162 78.84590336 -22.52734375 77.11328125 C-22.44601196 75.96533081 -22.44601196 75.96533081 -22.36303711 74.79418945 C-22.04774844 72.36750566 -21.56243507 70.13242771 -20.98413086 67.76025391 C-19.90497832 63.03707336 -19.72052198 58.55217123 -19.7265625 53.72265625 C-19.70627825 51.97460292 -19.68542756 50.22655608 -19.6640625 48.47851562 C-19.64150489 45.7689051 -19.62499364 43.0595536 -19.61914062 40.34985352 C-19.5426326 19.26232969 -19.5426326 19.26232969 -15 13 C-14.01 12.67 -13.02 12.34 -12 12 C-11.19436362 9.89415562 -11.19436362 9.89415562 -10.8125 7.4375 C-10.65394531 6.61121094 -10.49539062 5.78492187 -10.33203125 4.93359375 C-10.16767578 3.97646484 -10.16767578 3.97646484 -10 3 C-9.01 3 -8.02 3 -7 3 C-7 2.34 -7 1.68 -7 1 C-4.50935112 0.31292445 -2.62113708 0 0 0 Z M-6 3 C-9.19942729 6.43178793 -10.80508776 10.74325612 -12.625 15 C-12.93695313 15.7115625 -13.24890625 16.423125 -13.5703125 17.15625 C-15.62556793 21.90459875 -17.09947738 26.0310918 -17.18945312 31.25854492 C-17.20617065 32.09008591 -17.22288818 32.92162689 -17.2401123 33.77836609 C-17.25368774 34.67005997 -17.26726318 35.56175385 -17.28125 36.48046875 C-17.29965942 37.40789383 -17.31806885 38.33531891 -17.33703613 39.29084778 C-17.39569977 42.25633488 -17.44849934 45.2218804 -17.5 48.1875 C-17.56815182 52.07693069 -17.64194404 55.96620051 -17.71875 59.85546875 C-17.73232544 60.73704147 -17.74590088 61.6186142 -17.7598877 62.52690125 C-17.90453279 69.8580115 -18.33983453 77.12808945 -20.1875 84.25 C-20.4453125 85.24902344 -20.703125 86.24804688 -20.96875 87.27734375 C-21.79471844 90.25896468 -22.65195057 93.22537135 -23.53125 96.19140625 C-23.80300049 97.11598633 -24.07475098 98.04056641 -24.35473633 98.99316406 C-24.90031526 100.84023107 -25.45453361 102.68477319 -26.01831055 104.52636719 C-28.71240664 113.63178369 -27.8144637 121.5130301 -26.5625 130.8125 C-26.36043945 132.38547852 -26.36043945 132.38547852 -26.15429688 133.99023438 C-25.63630824 139.15484068 -25.63630824 139.15484068 -24 144 C-22.04909096 143.75668577 -22.04909096 143.75668577 -20 143 C-18.59200424 140.42461535 -17.45863873 138.01919938 -16.375 135.3125 C-15.92640625 134.24999023 -15.92640625 134.24999023 -15.46875 133.16601562 C-14.61471862 131.11974132 -13.78360182 129.07433783 -13 127 C-12.64671631 126.15268311 -12.29343262 125.30536621 -11.92944336 124.43237305 C-10.62828486 119.62728051 -10.62958213 114.98977396 -10.54296875 110.03125 C-10.48184807 107.8268026 -10.41997306 105.62237602 -10.35742188 103.41796875 C-10.26977144 99.98527672 -10.18852569 96.55279452 -10.12182617 93.11962891 C-9.74437607 74.81796687 -7.39221798 58.01990337 -1.625 40.625 C1.45016845 30.24630647 0.86572399 12.73144799 -4 3 C-4.66 3 -5.32 3 -6 3 Z " fill="#5DCA82" transform="translate(187,76)"/>
<path d="M0 0 C1.79244141 0.02513672 1.79244141 0.02513672 3.62109375 0.05078125 C21.64592469 0.78010967 43.65995828 7.68404871 58 19 C58.33 19.99 58.66 20.98 59 22 C55.98782888 21.35550393 53.48344164 20.34977818 50.75 18.9375 C50.04359375 18.57527344 49.3371875 18.21304688 48.609375 17.83984375 C47.81273437 17.42412109 47.81273437 17.42412109 47 17 C47 16.34 47 15.68 47 15 C46.195625 14.9175 45.39125 14.835 44.5625 14.75 C40.03226803 13.79626695 36.18779965 11.92783191 32 10 C26.13314504 7.47118321 20.28169306 6.14427572 14.01513672 5.00170898 C9.09528945 4.09528945 9.09528945 4.09528945 8 3 C5.07802754 2.88644196 2.18059216 2.83581161 -0.7421875 2.83203125 C-1.62149933 2.82870285 -2.50081116 2.82537445 -3.4067688 2.82194519 C-5.27133662 2.81687163 -7.13591356 2.814537 -9.00048828 2.81469727 C-11.85594665 2.81251456 -14.71101651 2.79437396 -17.56640625 2.77539062 C-19.37499867 2.77245606 -21.18359294 2.77047169 -22.9921875 2.76953125 C-23.84851776 2.76234573 -24.70484802 2.75516022 -25.58712769 2.74775696 C-26.38450348 2.75083359 -27.18187927 2.75391022 -28.00341797 2.75708008 C-29.05479446 2.75494255 -29.05479446 2.75494255 -30.12741089 2.75276184 C-32.33382008 2.90403429 -32.33382008 2.90403429 -35 5 C-38.30415594 5.85158658 -41.62789717 6.52650121 -44.96875 7.21875 C-48.14781344 7.86057948 -48.14781344 7.86057948 -51 10 C-52.98046875 10.4921875 -52.98046875 10.4921875 -55.1875 10.875 C-62.67415154 12.44731777 -68.44826305 16.19012986 -74.68359375 20.484375 C-77.7572973 22.49549975 -80.97358733 24.16894776 -84.25 25.82421875 C-86.32635698 26.96057549 -86.32635698 26.96057549 -87 30 C-88.65 30.33 -90.3 30.66 -92 31 C-92 31.66 -92 32.32 -92 33 C-92.94875 33.4125 -93.8975 33.825 -94.875 34.25 C-98.27868536 36.1560638 -98.40939074 36.7193684 -100 40 C-101.97321053 41.3726682 -103.97543152 42.70427617 -106 44 C-109.76426807 47.07985569 -111.6146432 50.78867866 -113.75390625 55.07421875 C-115 57 -115 57 -118 58 C-118.70710678 59.64991582 -119.36562656 61.3207762 -120 63 C-120.94746094 64.36511719 -120.94746094 64.36511719 -121.9140625 65.7578125 C-124.02766639 69.04300207 -125.21841955 71.98807592 -126.4375 75.6875 C-127.92127573 80.06577976 -129.51117222 84.14295324 -131.625 88.25 C-134.36394549 93.96829998 -135.18517437 99.84056177 -136.01220703 106.07128906 C-136.28381391 108.05627201 -136.63511249 110.03002927 -137 112 C-137.99 112.495 -137.99 112.495 -139 113 C-140.89184721 86.51413907 -123.63521261 60.85511445 -107.375 41.625 C-103.87258436 37.72347189 -100.02199559 34.35284942 -96 31 C-95.19949219 30.30003906 -94.39898437 29.60007812 -93.57421875 28.87890625 C-66.52420747 5.75615587 -34.72382408 -0.68338158 0 0 Z " fill="#5BCB87" transform="translate(184,18)"/>
<path d="M0 0 C2.64 0 5.28 0 8 0 C12.25284297 7.1387007 10.0877465 16.82935345 8.73046875 24.625 C7.91689028 27.27021771 6.68952434 28.8328091 5 31 C4.31744011 33.32873375 3.64949225 35.66182791 3 38 C2.34 38.66 1.68 39.32 1 40 C0.39029265 41.89182274 0.39029265 41.89182274 0 44.0625 C-1 49 -1 49 -1.48432922 50.86643982 C-2.98235167 56.85124296 -3.27791731 62.47391121 -3.23046875 68.625 C-3.23001053 69.61193848 -3.22955231 70.59887695 -3.2290802 71.61572266 C-3.22607677 73.68979098 -3.21824828 75.76385743 -3.20581055 77.83789062 C-3.1875523 80.99096787 -3.1853013 84.14375035 -3.18554688 87.296875 C-3.18063036 89.32291917 -3.17480146 91.34896138 -3.16796875 93.375 C-3.16685593 94.30650879 -3.1657431 95.23801758 -3.16459656 96.19775391 C-3.12882071 101.1954171 -2.86759832 106.07375396 -2.2361145 111.03285217 C-1.12680976 120.27483604 -0.88806267 129.87902932 -6 138 C-9.4352048 140.29013653 -10.985331 140.17842973 -15 140 C-15 138.68 -15 137.36 -15 136 C-16.32 136 -17.64 136 -19 136 C-19 134.02 -19 132.04 -19 130 C-18.34 129.67 -17.68 129.34 -17 129 C-16.67 130.98 -16.34 132.96 -16 135 C-13.36 135 -10.72 135 -8 135 C-3.17303558 125.94944172 -4.95456829 116.45814711 -6.1184082 106.58447266 C-7.84804214 91.89351922 -8.22002656 77.76203826 -7 63 C-6.9075052 61.54297173 -6.81505356 60.08594071 -6.72265625 58.62890625 C-5.54218377 45.24579688 -0.43980247 33.1412386 5.15478516 21.04077148 C6.70192709 17.30519684 7.13728936 14.0309099 7.125 10 C7.12757813 9.154375 7.13015625 8.30875 7.1328125 7.4375 C7.00833711 5.15301056 6.63877457 3.19008426 6 1 C4.02 1 2.04 1 0 1 C0 0.67 0 0.34 0 0 Z " fill="#5AC37E" transform="translate(223,88)"/>
<path d="M0 0 C0.99 0.33 1.98 0.66 3 1 C2.45730469 1.85722656 1.91460937 2.71445313 1.35546875 3.59765625 C0.6325539 4.75244232 -0.09008773 5.90739946 -0.8125 7.0625 C-1.16892578 7.62388672 -1.52535156 8.18527344 -1.89257812 8.76367188 C-2.41948242 9.60961914 -2.41948242 9.60961914 -2.95703125 10.47265625 C-3.27647705 10.98062744 -3.59592285 11.48859863 -3.92504883 12.01196289 C-7.39744257 18.43388027 -8.44954614 23.22624351 -8.5546875 30.47265625 C-8.60932124 32.34702588 -8.66468877 34.22137424 -8.72070312 36.09570312 C-8.75756226 37.55762085 -8.75756226 37.55762085 -8.79516602 39.04907227 C-9.2809863 57.38693084 -10.86310569 74.87721439 -14.39501953 92.87817383 C-16.11846297 101.77150363 -17.47368021 109.79804547 -16.125 118.8125 C-16.02058594 119.61236328 -15.91617188 120.41222656 -15.80859375 121.23632812 C-15.55520907 123.1597482 -15.28009275 125.08028735 -15 127 C-15.99 127.495 -15.99 127.495 -17 128 C-21.56745303 117.64710647 -21.6130098 102.97065184 -19 92 C-18.25363281 90.87271484 -18.25363281 90.87271484 -17.4921875 89.72265625 C-15.5624274 86.20160182 -15.51392911 82.98222125 -15.4375 79.0625 C-15.25072477 71.6537493 -15.25072477 71.6537493 -13.99560547 68.38110352 C-12.66501065 63.86236696 -12.74057035 59.6766224 -12.76171875 54.9921875 C-12.74629087 53.0156182 -12.72998664 51.03905558 -12.71289062 49.0625 C-12.69650649 45.97543472 -12.68746806 42.8888626 -12.69458008 39.80175781 C-12.70790841 24.6947023 -11.9573491 13.11028944 -2 1 C-1.34 0.67 -0.68 0.34 0 0 Z " fill="#60C183" transform="translate(220,89)"/>
<path d="M0 0 C0.33 0 0.66 0 1 0 C1.19916016 0.95712891 1.19916016 0.95712891 1.40234375 1.93359375 C1.57894531 2.75988281 1.75554687 3.58617188 1.9375 4.4375 C2.11152344 5.26121094 2.28554687 6.08492188 2.46484375 6.93359375 C2.80752994 8.97661204 2.80752994 8.97661204 4 10 C4.07319621 12.69654854 4.09242537 15.36691458 4.0625 18.0625 C4.05798828 18.82111328 4.05347656 19.57972656 4.04882812 20.36132812 C4.0370068 22.24091871 4.01907078 24.12046899 4 26 C3.34 26 2.68 26 2 26 C1.83564453 26.87398437 1.83564453 26.87398437 1.66796875 27.765625 C0.77131859 32.40196241 -0.24716269 36.94654056 -1.5 41.5 C-5.93014256 59.3092914 -5.35977509 77.82917101 -5.45629883 96.04833984 C-5.47779317 99.45956281 -5.51712731 102.87022027 -5.55859375 106.28125 C-5.55870956 107.33002319 -5.55882538 108.37879639 -5.5589447 109.45935059 C-5.57228348 110.42215942 -5.58562225 111.38496826 -5.59936523 112.37695312 C-5.60697121 113.64786804 -5.60697121 113.64786804 -5.61473083 114.94445801 C-5.74186966 115.62278687 -5.86900848 116.30111572 -6 117 C-7.485 117.99 -7.485 117.99 -9 119 C-9.2475 120.485 -9.2475 120.485 -9.5 122 C-9.7475 123.485 -9.7475 123.485 -10 125 C-11.485 125.99 -11.485 125.99 -13 127 C-13.4125 128.134375 -13.825 129.26875 -14.25 130.4375 C-16.24377916 134.49626472 -16.24377916 134.49626472 -19.6875 135.9375 C-20.780625 136.288125 -21.87375 136.63875 -23 137 C-25.46254726 130.38190423 -25.18935472 123.99560484 -25 117 C-24.67 117 -24.34 117 -24 117 C-23.34 122.61 -22.68 128.22 -22 134 C-18.63933702 133.26699853 -18.63933702 133.26699853 -17.24609375 129.61328125 C-16.63218624 128.18438156 -16.02976896 126.75050356 -15.4375 125.3125 C-15.13392578 124.60416016 -14.83035156 123.89582031 -14.51757812 123.16601562 C-13.64998888 121.11895866 -12.79920705 119.07480512 -12 117 C-11.46898682 115.72902466 -11.46898682 115.72902466 -10.92724609 114.43237305 C-9.62915419 109.6272456 -9.62957046 104.98910578 -9.54296875 100.03125 C-9.48184807 97.8268026 -9.41997306 95.62237602 -9.35742188 93.41796875 C-9.26977144 89.98527672 -9.18852569 86.55279452 -9.12182617 83.11962891 C-8.7496253 65.07248993 -6.7559229 48.18148897 -0.625 31.125 C2.42626788 21.16566164 0.80271849 10.24097138 0 0 Z " fill="#56C17D" transform="translate(185,86)"/>
<path d="M0 0 C0.66 0 1.32 0 2 0 C2.07476562 0.95777344 2.14953125 1.91554687 2.2265625 2.90234375 C3.16493317 12.94902974 5.6809758 21.62727177 9.31640625 31.0078125 C10.04540415 33.13232067 10.52747785 35.24281034 11 37.4375 C11.33 38.613125 11.66 39.78875 12 41 C12.99 41.33 13.98 41.66 15 42 C15.4021875 43.36125 15.4021875 43.36125 15.8125 44.75 C17.11095901 48.30367729 18.46754046 49.24045824 21.41015625 51.44921875 C25.14333191 55.09067019 26.94250609 60.50795492 28.953125 65.24609375 C29.94716448 67.34490637 29.94716448 67.34490637 33 68 C34 69.66666667 35 71.33333333 36 73 C36.99 73.33 37.98 73.66 39 74 C40.17090304 75.13744867 41.33633539 76.28159674 42.4609375 77.46484375 C44.96567793 79.96322697 47.70985989 82.18511425 50.42578125 84.44921875 C50.94527344 84.96097656 51.46476562 85.47273438 52 86 C52 86.66 52 87.32 52 88 C52.515625 88.0825 53.03125 88.165 53.5625 88.25 C57.04455732 89.32140225 59.87200885 91.13523605 63 93 C63 93.99 63 94.98 63 96 C64.65 96.33 66.3 96.66 68 97 C68 97.66 68 98.32 68 99 C68.61875 99.12375 69.2375 99.2475 69.875 99.375 C72 100 72 100 74 102 C69.40830367 101.42603796 65.89226499 99.48846672 62 97.125 C61.34717041 96.73151367 60.69434082 96.33802734 60.02172852 95.93261719 C53.08567517 91.62580221 47.08692716 86.40696087 41 81 C39.94665101 80.12701234 38.89067963 79.2571786 37.83203125 78.390625 C17.81373694 61.49242346 4.22484099 35.60002659 0 10 C-0.06459042 8.23022239 -0.08611065 6.45829848 -0.0625 4.6875 C-0.05347656 3.80449219 -0.04445312 2.92148438 -0.03515625 2.01171875 C-0.02355469 1.34785156 -0.01195312 0.68398437 0 0 Z " fill="#43CA76" transform="translate(45,166)"/>
<path d="M0 0 C0.33 0 0.66 0 1 0 C1.40640914 26.70108048 -0.29442467 48.75516932 -10.9609375 73.42578125 C-13.51834079 79.76160368 -14.62218655 85.24088936 -13 92 C-12.34 92.99 -11.68 93.98 -11 95 C-8.12045356 94.65802544 -8.12045356 94.65802544 -5 93 C-3.51928297 90.80634514 -2.3879239 88.59031846 -1.2734375 86.19140625 C0.15548454 83.73243305 1.64158397 82.54739955 4 81 C3.86847679 87.05006778 1.68815669 91.15413754 -1.89453125 96 C-4.28386526 98.26964566 -5.43104547 98.76525778 -8.6875 98.9375 C-12.08789206 98.54358746 -12.88904294 98.10263528 -15.5 95.6875 C-17.57133156 91.97636429 -18.17588464 89.13119412 -18.25 84.9375 C-18.27578125 84.05964844 -18.3015625 83.18179688 -18.328125 82.27734375 C-18.21984375 81.52582031 -18.1115625 80.77429688 -18 80 C-16.515 79.01 -16.515 79.01 -15 78 C-14.2833793 75.68152126 -13.61757973 73.34680297 -13 71 C-12.34 70.01 -11.68 69.02 -11 68 C-10.65558648 65.85295515 -10.65558648 65.85295515 -10.5625 63.5625 C-10.21715025 59.65062917 -9.34608752 58.12811669 -7 55 C-6.62484297 52.70269007 -6.43790092 50.44470436 -6.30859375 48.12109375 C-6 46 -6 46 -4 43 C-3.22491271 39.94281929 -2.86648181 36.81027264 -2.4375 33.6875 C-2.24353638 32.31331909 -2.24353638 32.31331909 -2.0456543 30.91137695 C-0.68534139 20.6441912 -0.27110509 10.34543023 0 0 Z " fill="#4FBD78" transform="translate(130,114)"/>
<path d="M0 0 C0.66 0 1.32 0 2 0 C3.81962771 7.08355074 4.21816942 14.03655912 4.25 21.3125 C4.25902344 22.17198242 4.26804688 23.03146484 4.27734375 23.91699219 C4.22663277 34.77336723 4.22663277 34.77336723 1 38 C0.86650694 39.58896164 0.79653703 41.18335438 0.75390625 42.77734375 C0.72103516 43.76669922 0.68816406 44.75605469 0.65429688 45.77539062 C0.59412193 47.8482256 0.53673042 49.92114366 0.48242188 51.99414062 C0.32322871 56.65880073 0.07965482 61.06223595 -1.00390625 65.609375 C-2.88876812 74.14116938 -2.4203901 83.09496675 -2.53173828 91.79125977 C-2.56553995 94.19046409 -2.61058854 96.589278 -2.65625 98.98828125 C-2.6615271 99.71856033 -2.6668042 100.44883942 -2.67224121 101.20124817 C-2.7868689 107.08112372 -3.59944655 110.49940702 -7.625 114.8125 C-8.800625 115.8953125 -8.800625 115.8953125 -10 117 C-9.79503906 116.39414063 -9.59007812 115.78828125 -9.37890625 115.1640625 C-9.10949219 114.32617188 -8.84007812 113.48828125 -8.5625 112.625 C-8.29566406 111.81289062 -8.02882812 111.00078125 -7.75390625 110.1640625 C-5.9577822 102.62592531 -5.92310376 95.01423109 -5.83569336 87.29553223 C-5.6198764 68.67074043 -3.70736799 51.28880145 0 33 C0.38831935 31.00521968 0.77018677 29.00916879 1.14453125 27.01171875 C1.38393433 25.74654419 1.38393433 25.74654419 1.62817383 24.45581055 C2.72559508 17.2076422 1.93108557 11.00018518 0 4 C0 2.68 0 1.36 0 0 Z " fill="#5BD589" transform="translate(141,81)"/>
<path d="M0 0 C0.66 0.33 1.32 0.66 2 1 C1.67636475 1.80904785 1.35272949 2.6180957 1.01928711 3.45166016 C-0.19380586 7.67467649 -0.29682435 11.40790389 -0.30859375 15.7734375 C-0.33378997 17.50390909 -0.35918736 19.23437776 -0.38476562 20.96484375 C-0.41323005 23.65412356 -0.43727614 26.34335165 -0.45629883 29.03271484 C-0.54425986 39.46624645 -1.06619086 49.30842392 -3.31469727 59.51708984 C-4.22001962 64.11820448 -4.45126966 68.65002066 -4.59375 73.328125 C-5.06135035 76.40349655 -6.11772995 77.58758154 -8 80 C-8.56689282 82.34852226 -8.56689282 82.34852226 -8.6875 84.75 C-8.75324219 85.54921875 -8.81898438 86.3484375 -8.88671875 87.171875 C-8.92410156 87.77515625 -8.96148437 88.3784375 -9 89 C-9.66 89 -10.32 89 -11 89 C-11 96.92 -11 104.84 -11 113 C-10.34 113 -9.68 113 -9 113 C-8.86722656 114.05960937 -8.73445312 115.11921875 -8.59765625 116.2109375 C-8.41946125 117.59898279 -8.2410654 118.98700231 -8.0625 120.375 C-7.97548828 121.07367188 -7.88847656 121.77234375 -7.79882812 122.4921875 C-7.33681872 126.36783575 -7.33681872 126.36783575 -6 130 C-1.67628107 127.97366931 -1.67628107 127.97366931 2 125 C1.40269644 128.34489996 0.42082645 130.57917355 -2 133 C-4.7869985 133.48772474 -6.25359351 133.50359956 -8.62109375 131.90625 C-10.68152407 129.05783641 -10.44954291 126.53501946 -10.5625 123.0625 C-10.57037107 118.41166003 -10.57037107 118.41166003 -12.00488281 114.11157227 C-13.21507285 111.54362976 -13.24356638 109.6978167 -13.23046875 106.8671875 C-13.22853516 105.89652344 -13.22660156 104.92585938 -13.22460938 103.92578125 C-13.21236328 102.91902344 -13.20011719 101.91226563 -13.1875 100.875 C-13.18685547 99.86050781 -13.18621094 98.84601563 -13.18554688 97.80078125 C-13.14048812 90.28097625 -13.14048812 90.28097625 -12 88 C-11.34 88 -10.68 88 -10 88 C-10.05220703 87.12988281 -10.05220703 87.12988281 -10.10546875 86.2421875 C-10.14607422 85.07042969 -10.14607422 85.07042969 -10.1875 83.875 C-10.22230469 83.10929687 -10.25710937 82.34359375 -10.29296875 81.5546875 C-10 79 -10 79 -8.52294922 76.25756836 C-6.8684689 72.7186567 -6.52910907 70.2062241 -6.33984375 66.32421875 C-6.26830078 65.08478516 -6.19675781 63.84535156 -6.12304688 62.56835938 C-6.06181641 61.28767578 -6.00058594 60.00699219 -5.9375 58.6875 C-5.80935781 56.12846237 -5.67310033 53.56981355 -5.52734375 51.01171875 C-5.47312256 49.88209717 -5.41890137 48.75247559 -5.36303711 47.58862305 C-5.18333374 46.30725464 -5.18333374 46.30725464 -5 45 C-4.01 44.505 -4.01 44.505 -3 44 C-3.01571045 42.95134766 -3.0314209 41.90269531 -3.04760742 40.82226562 C-3.10224455 36.90112097 -3.13647191 32.98000943 -3.16479492 29.05859375 C-3.17980505 27.36712978 -3.20021963 25.67570422 -3.22631836 23.984375 C-3.26304686 21.54156976 -3.27980411 19.0992827 -3.29296875 16.65625 C-3.30845261 15.91008423 -3.32393646 15.16391846 -3.33988953 14.3951416 C-3.34159263 8.98246177 -2.13211629 4.9773972 0 0 Z " fill="#32D76C" transform="translate(169,92)"/>
<path d="M0 0 C1.79244141 0.02513672 1.79244141 0.02513672 3.62109375 0.05078125 C21.64592469 0.78010967 43.65995828 7.68404871 58 19 C58.495 20.485 58.495 20.485 59 22 C55.98782888 21.35550393 53.48344164 20.34977818 50.75 18.9375 C50.04359375 18.57527344 49.3371875 18.21304688 48.609375 17.83984375 C47.81273437 17.42412109 47.81273437 17.42412109 47 17 C47 16.34 47 15.68 47 15 C45.7934375 14.87625 45.7934375 14.87625 44.5625 14.75 C40.03226803 13.79626695 36.18779965 11.92783191 32 10 C26.13314504 7.47118321 20.28169306 6.14427572 14.01513672 5.00170898 C9.09528945 4.09528945 9.09528945 4.09528945 8 3 C6.58774954 2.9071274 5.17091066 2.88253228 3.75561523 2.88647461 C2.40432777 2.88658791 2.40432777 2.88658791 1.02574158 2.88670349 C-0.4429966 2.89444542 -0.4429966 2.89444542 -1.94140625 2.90234375 C-2.93881332 2.9037587 -3.9362204 2.90517365 -4.96385193 2.90663147 C-8.16343124 2.91224886 -11.36294169 2.92480429 -14.5625 2.9375 C-16.72591045 2.94251276 -18.88932199 2.94707605 -21.05273438 2.95117188 C-26.36851325 2.96222393 -31.68425171 2.97897896 -37 3 C-27.00162478 -2.38083587 -11.16071565 -0.21964826 0 0 Z " fill="#57BF83" transform="translate(184,18)"/>
<path d="M0 0 C5.00845524 0.56928802 9.3367835 1.70456588 14.0625 3.4375 C21.30833442 5.99943639 28.34073225 7.20928977 36 8 C36 8.33 36 8.66 36 9 C48.21 9 60.42 9 73 9 C73 8.67 73 8.34 73 8 C80.12950371 6.09879901 86.63740707 5.77575859 94 6 C78.40313756 16.39790829 46.02012432 13.80034503 28.13671875 10.46728516 C18.53739031 8.36798047 8.66545185 5.69729186 0 1 C0 0.67 0 0.34 0 0 Z " fill="#36A761" transform="translate(119,268)"/>
<path d="M0 0 C0.99 0.33 1.98 0.66 3 1 C2.45730469 1.85722656 1.91460937 2.71445313 1.35546875 3.59765625 C0.6325539 4.75244232 -0.09008773 5.90739946 -0.8125 7.0625 C-1.16892578 7.62388672 -1.52535156 8.18527344 -1.89257812 8.76367188 C-2.24384766 9.32763672 -2.59511719 9.89160156 -2.95703125 10.47265625 C-3.27647705 10.98062744 -3.59592285 11.48859863 -3.92504883 12.01196289 C-7.48064471 18.58775605 -8.49834831 23.66194817 -8.73046875 31.08984375 C-8.770616 32.03436905 -8.81076324 32.97889435 -8.85212708 33.95204163 C-8.9765392 36.94684465 -9.08229643 39.94196691 -9.1875 42.9375 C-9.26894803 44.9772632 -9.35161755 47.01697802 -9.43554688 49.05664062 C-9.63783714 54.03731169 -9.82340885 59.01835425 -10 64 C-10.33 64 -10.66 64 -11 64 C-12.11193453 56.02505972 -12.28768349 48.0653869 -12.35009766 40.02661133 C-12.36664366 38.4724224 -12.39391652 36.91830915 -12.43212891 35.36450195 C-12.75536216 22.07961515 -10.69440471 11.574276 -2 1 C-1.34 0.67 -0.68 0.34 0 0 Z " fill="#44C672" transform="translate(220,89)"/>
<path d="M0 0 C0.33 0 0.66 0 1 0 C1.02505615 0.98282959 1.0501123 1.96565918 1.07592773 2.97827148 C1.17088119 6.66294969 1.27087838 10.34747745 1.37231445 14.03198242 C1.41533386 15.61951145 1.45702837 17.207077 1.49731445 18.79467773 C1.70413882 26.91189581 1.98987237 34.93527135 3 43 C3.55152991 51.81543715 3.86418473 60.27261624 -1 68 C-4.4352048 70.29013653 -5.985331 70.17842973 -10 70 C-10 68.68 -10 67.36 -10 66 C-11.32 66 -12.64 66 -14 66 C-14 64.02 -14 62.04 -14 60 C-13.01 59.505 -13.01 59.505 -12 59 C-11.67 60.98 -11.34 62.96 -11 65 C-8.36 65 -5.72 65 -3 65 C1.99519117 55.63401656 -0.05401021 45.86100842 -1.28344727 35.72583008 C-2.01926368 29.46509874 -2.2225062 23.30434221 -2 17 C-1.67 17 -1.34 17 -1 17 C-0.67 11.39 -0.34 5.78 0 0 Z " fill="#4ACF78" transform="translate(218,158)"/>
<path d="M0 0 C0.04898438 0.81984375 0.09796875 1.6396875 0.1484375 2.484375 C0.22320312 3.56203125 0.29796875 4.6396875 0.375 5.75 C0.44460937 6.81734375 0.51421875 7.8846875 0.5859375 8.984375 C0.80897672 11.90646751 0.80897672 11.90646751 2.01147461 13.88793945 C3.17209553 16.36769534 3.24402188 18.08069366 3.23046875 20.80859375 C3.22853516 21.72060547 3.22660156 22.63261719 3.22460938 23.57226562 C3.21236328 24.51779297 3.20011719 25.46332031 3.1875 26.4375 C3.18685547 27.37916016 3.18621094 28.32082031 3.18554688 29.29101562 C3.15764567 33.68390488 2.96105824 37.69800612 2 42 C1.34 42 0.68 42 0 42 C-0.33 45.63 -0.66 49.26 -1 53 C-1.66 53 -2.32 53 -3 53 C-3.12117187 54.26457031 -3.24234375 55.52914062 -3.3671875 56.83203125 C-3.53602147 58.49223198 -3.70531633 60.15238589 -3.875 61.8125 C-3.95363281 62.64587891 -4.03226563 63.47925781 -4.11328125 64.33789062 C-4.23896484 65.54155273 -4.23896484 65.54155273 -4.3671875 66.76953125 C-4.44050293 67.50792236 -4.51381836 68.24631348 -4.58935547 69.00708008 C-5 71 -5 71 -7 74 C-6.6430393 64.30051617 -5.80618859 55.35396197 -3 46 C-2.71511719 45.02289063 -2.43023437 44.04578125 -2.13671875 43.0390625 C-1.44162135 40.68693197 -0.73038197 38.34136633 0 36 C0.66 36 1.32 36 2 36 C1.88553728 33.43663746 1.75880499 30.87486555 1.625 28.3125 C1.5940625 27.59126953 1.563125 26.87003906 1.53125 26.12695312 C1.30462558 21.99105745 0.71774291 18.82336326 -1 15 C-1.125 12.1875 -1.125 12.1875 -1 10 C-1.66 10 -2.32 10 -3 10 C-3.33 7.69 -3.66 5.38 -4 3 C-7.08089673 5.77280706 -8.68775452 8.06326356 -10 12 C-10.33 12 -10.66 12 -11 12 C-11.125 5.25 -11.125 5.25 -10 3 C-9.01 3 -8.02 3 -7 3 C-7 2.34 -7 1.68 -7 1 C-4.50935112 0.31292445 -2.62113708 0 0 0 Z " fill="#4FD77E" transform="translate(187,76)"/>
<path d="M0 0 C0.33 0 0.66 0 1 0 C2.53485759 6.63748147 3.30828887 12.90043714 3.30078125 19.70703125 C3.30506638 20.59428391 3.3093515 21.48153656 3.31376648 22.39567566 C3.31946583 24.25864821 3.32004283 26.12164299 3.31567383 27.98461914 C3.3125191 30.79548138 3.33601064 33.60528328 3.36132812 36.41601562 C3.39469845 46.37986551 2.95027306 55.40351967 0 65 C-0.66 65 -1.32 65 -2 65 C-2.66 67.97 -3.32 70.94 -4 74 C-4.33 74 -4.66 74 -5 74 C-5.05410687 72.22950311 -5.09284119 70.45853151 -5.125 68.6875 C-5.14820313 67.70136719 -5.17140625 66.71523437 -5.1953125 65.69921875 C-5 63 -5 63 -3 60 C-2.34 60 -1.68 60 -1 60 C-1.10699219 59.24976563 -1.21398437 58.49953125 -1.32421875 57.7265625 C-1.93280662 52.53066176 -2.37750167 48.22005131 -0.5625 43.25 C2.51080903 34.56334115 1.46572859 24.30383093 0.22265625 15.3046875 C-0.26800293 10.22593462 -0.07089832 5.09680145 0 0 Z " fill="#36CD6F" transform="translate(299,122)"/>
<path d="M0 0 C0.33 0 0.66 0 1 0 C1.13277344 0.63808594 1.26554688 1.27617188 1.40234375 1.93359375 C1.57894531 2.75988281 1.75554687 3.58617188 1.9375 4.4375 C2.11152344 5.26121094 2.28554687 6.08492188 2.46484375 6.93359375 C2.80752994 8.97661204 2.80752994 8.97661204 4 10 C4.07319621 12.69654854 4.09242537 15.36691458 4.0625 18.0625 C4.05798828 18.82111328 4.05347656 19.57972656 4.04882812 20.36132812 C4.0370068 22.24091871 4.01907078 24.12046899 4 26 C3.34 26 2.68 26 2 26 C1.89042969 26.58265625 1.78085938 27.1653125 1.66796875 27.765625 C0.78317149 32.34067423 -0.21880071 36.82301805 -1.46875 41.3125 C-3.41930887 49.0479069 -4.03288841 56.82341063 -4.6875 64.75 C-4.8174795 66.23705634 -4.9483336 67.72403649 -5.08007812 69.2109375 C-5.39677598 72.80647235 -5.70173218 76.40288369 -6 80 C-6.66 80 -7.32 80 -8 80 C-8.84002134 62.78889617 -6.27459443 47.40215318 -0.625 31.125 C2.42626788 21.16566164 0.80271849 10.24097138 0 0 Z " fill="#6ACC8C" transform="translate(185,86)"/>
<path d="M0 0 C0.33 0 0.66 0 1 0 C0.61765998 4.30132524 -0.21120798 7.5099349 -2 11.4375 C-5.29239669 20.31558226 -4.68094468 29.84495801 -4.75 39.1875 C-4.77820386 41.11265655 -4.80813734 43.03778858 -4.83984375 44.96289062 C-4.91318242 49.6418826 -4.96307651 54.32058478 -5 59 C-5.66 59 -6.32 59 -7 59 C-7.09948619 52.77446052 -7.17175931 46.54939218 -7.21972656 40.32324219 C-7.23974016 38.20890228 -7.26695972 36.09461701 -7.30175781 33.98046875 C-7.35072941 30.92694552 -7.37307182 27.87415922 -7.390625 24.8203125 C-7.41127014 23.88760529 -7.43191528 22.95489807 -7.45318604 21.993927 C-7.45536329 15.50679468 -6.4116554 9.63001617 -3 4 C-2.01 3.67 -1.02 3.34 0 3 C0 2.01 0 1.02 0 0 Z " fill="#52C77B" transform="translate(175,85)"/>
<path d="M0 0 C6.55350999 8.07316448 9.25242612 19.14247618 12 29 C12.27481201 29.98194336 12.54962402 30.96388672 12.83276367 31.97558594 C15.46069558 42.63344816 15.34272713 52.96223972 15.1875 63.875 C15.17241345 65.73827033 15.15873213 67.60155259 15.14648438 69.46484375 C15.11382199 73.97686349 15.06226344 78.48829565 15 83 C14.67 83 14.34 83 14 83 C13.98018066 81.90123535 13.96036133 80.8024707 13.93994141 79.67041016 C13.86324237 75.5513817 13.77463017 71.43267729 13.68261719 67.31396484 C13.64459076 65.53929086 13.60969455 63.76454668 13.578125 61.98974609 C14.38820699 46.45853911 14.38820699 46.45853911 9 33 C8.40234375 31.08984375 8.40234375 31.08984375 7.9375 28.9375 C7.47637504 26.1992487 7.47637504 26.1992487 6 24 C5.84141197 22.44055103 5.72321421 20.8769121 5.625 19.3125 C5.24158223 14.912624 4.17704619 11.88082148 2 8 C2 7.01 2 6.02 2 5 C1.34 5 0.68 5 0 5 C0 3.35 0 1.7 0 0 Z " fill="#3DB069" transform="translate(288,87)"/>
<path d="M0 0 C0.66 0 1.32 0 2 0 C3.81962771 7.08355074 4.21816942 14.03655912 4.25 21.3125 C4.25902344 22.17198242 4.26804688 23.03146484 4.27734375 23.91699219 C4.22663277 34.77336723 4.22663277 34.77336723 1 38 C0.81226403 40.14257398 0.67578534 42.28970241 0.5625 44.4375 C-0.5066618 60.5736189 -0.5066618 60.5736189 -5 66 C-3.60997434 53.84954045 -1.77658578 41.82843238 0.63671875 29.8359375 C2.45810503 20.66441792 2.48652072 13.01363763 0 4 C0 2.68 0 1.36 0 0 Z " fill="#6AD08A" transform="translate(141,81)"/>
<path d="M0 0 C0.66 0 1.32 0 2 0 C2.07476562 0.95777344 2.14953125 1.91554687 2.2265625 2.90234375 C3.16699514 12.98224626 5.70199157 21.70337662 9.31005859 31.12890625 C10.51733316 34.40298702 11.44479887 37.75201636 12.359375 41.1171875 C13.00970045 43.29309748 13.00970045 43.29309748 15 46 C14.67 46.99 14.34 47.98 14 49 C9.00227707 39.55042195 4.6178947 30.43024362 2 20 C1.77570312 19.11699219 1.55140625 18.23398438 1.3203125 17.32421875 C0.00001975 11.50950477 -0.22779902 5.9480855 0 0 Z " fill="#4DBF7A" transform="translate(45,166)"/>
<path d="M0 0 C0.33 0 0.66 0 1 0 C1.05814085 3.58326501 1.09364357 7.16640838 1.125 10.75 C1.14175781 11.76578125 1.15851563 12.7815625 1.17578125 13.828125 C1.18222656 14.8078125 1.18867188 15.7875 1.1953125 16.796875 C1.20578613 17.69760742 1.21625977 18.59833984 1.22705078 19.52636719 C1 22 1 22 0 23.91796875 C-1.40364879 26.8404094 -1.22466569 29.28677451 -1.1953125 32.515625 C-1.18886719 33.76601562 -1.18242187 35.01640625 -1.17578125 36.3046875 C-1.15902344 37.60664063 -1.14226562 38.90859375 -1.125 40.25 C-1.11597656 41.56742188 -1.10695312 42.88484375 -1.09765625 44.2421875 C-1.07408533 47.49497462 -1.04118022 50.74739589 -1 54 C-1.66 54 -2.32 54 -3 54 C-3.0494981 47.96770418 -3.08576625 41.93552704 -3.10986328 35.90307617 C-3.11991069 33.85162293 -3.13355092 31.80018396 -3.15087891 29.7487793 C-3.17518246 26.79732738 -3.18649582 23.8460651 -3.1953125 20.89453125 C-3.21079636 19.52238213 -3.21079636 19.52238213 -3.22659302 18.12251282 C-3.22739007 13.58216897 -3.0407655 10.15091508 -1 6 C-0.62406934 4.0075675 -0.28020455 2.0081326 0 0 Z " fill="#2CD66B" transform="translate(182,141)"/>
<path d="M0 0 C0.33 0 0.66 0 1 0 C1.01417969 0.58007812 1.02835937 1.16015625 1.04296875 1.7578125 C1.41539502 7.85755082 2.67989602 10.67989602 7 15 C9.87954644 14.65802544 9.87954644 14.65802544 13 13 C14.48071703 10.80634514 15.6120761 8.59031846 16.7265625 6.19140625 C18.15548454 3.73243305 19.64158397 2.54739955 22 1 C21.86847679 7.05006778 19.68815669 11.15413754 16.10546875 16 C13.71613474 18.26964566 12.56895453 18.76525778 9.3125 18.9375 C5.91210794 18.54358746 5.11095706 18.10263528 2.5 15.6875 C0.36501129 11.86231189 -0.11849496 9.12411189 -0.0625 4.8125 C-0.05347656 3.91144531 -0.04445313 3.01039063 -0.03515625 2.08203125 C-0.02355469 1.39496094 -0.01195313 0.70789063 0 0 Z " fill="#44CC75" transform="translate(112,194)"/>
<path d="M0 0 C1 2 1 2 0.109375 4.79296875 C-0.33921875 5.91316406 -0.7878125 7.03335938 -1.25 8.1875 C-1.68828125 9.29480469 -2.1265625 10.40210937 -2.578125 11.54296875 C-3.51994112 13.83282389 -4.51856831 16.10018835 -5.57421875 18.33984375 C-7.26180094 22.6720753 -7.93464371 26.79053455 -8.5625 31.375 C-8.96302173 34.2816434 -9.43236419 37.11724224 -10 40 C-10.99 40.495 -10.99 40.495 -12 41 C-12.82743803 29.41586764 -9.08264426 18.22754798 -4.875 7.5625 C-4.62153809 6.91780762 -4.36807617 6.27311523 -4.10693359 5.60888672 C-2.25813964 1.12906982 -2.25813964 1.12906982 0 0 Z " fill="#56C480" transform="translate(57,90)"/>
<path d="M0 0 C0.33 0 0.66 0 1 0 C1.29620821 4.44312313 0.8391204 7.91144137 -0.4375 12.1875 C-3.49779392 22.6958851 -3.21646657 33.88114664 -3.5625 44.75 C-3.60568359 46.03132813 -3.64886719 47.31265625 -3.69335938 48.6328125 C-3.79821334 51.75513066 -3.90038018 54.87751121 -4 58 C-4.33 58 -4.66 58 -5 58 C-5 54.37 -5 50.74 -5 47 C-5.66 47 -6.32 47 -7 47 C-7 44.03 -7 41.06 -7 38 C-6.67 38 -6.34 38 -6 38 C-5.95512451 37.36610352 -5.91024902 36.73220703 -5.86401367 36.07910156 C-4.95551934 23.62039725 -3.96620245 11.89860734 0 0 Z " fill="#5ED68C" transform="translate(222,128)"/>
<path d="M0 0 C0.87078186 -0.0033284 1.74156372 -0.0066568 2.63873291 -0.01008606 C4.48473583 -0.015155 6.33074794 -0.0174944 8.17675781 -0.01733398 C10.9903902 -0.01951172 13.80362498 -0.0376434 16.6171875 -0.05664062 C18.41145699 -0.05957637 20.20572835 -0.06155995 22 -0.0625 C22.83770935 -0.06968552 23.6754187 -0.07687103 24.53851318 -0.08427429 C29.20026487 -0.06620893 32.86913005 0.43570351 37.265625 2.16796875 C38.92650545 2.52902972 40.59181481 2.87259048 42.265625 3.16796875 C42.265625 3.49796875 42.265625 3.82796875 42.265625 4.16796875 C40.409375 4.22984375 40.409375 4.22984375 38.515625 4.29296875 C37.47148437 4.32777344 37.47148437 4.32777344 36.40625 4.36328125 C34.265625 4.16796875 34.265625 4.16796875 32.52587891 3.17236328 C29.56773096 1.85784388 27.1934453 1.90889013 23.9609375 1.90234375 C22.73761719 1.89976563 21.51429688 1.8971875 20.25390625 1.89453125 C18.97902344 1.90226562 17.70414063 1.91 16.390625 1.91796875 C15.12347656 1.91023438 13.85632813 1.9025 12.55078125 1.89453125 C11.32488281 1.89710937 10.09898437 1.8996875 8.8359375 1.90234375 C7.71977051 1.90459961 6.60360352 1.90685547 5.45361328 1.90917969 C2.10204801 2.18124732 -0.57807091 3.04715648 -3.734375 4.16796875 C-7.1640625 4.36328125 -7.1640625 4.36328125 -10.609375 4.29296875 C-11.76179687 4.27492188 -12.91421875 4.256875 -14.1015625 4.23828125 C-14.97039062 4.21507812 -15.83921875 4.191875 -16.734375 4.16796875 C-16.734375 3.83796875 -16.734375 3.50796875 -16.734375 3.16796875 C-15.785625 2.85859375 -14.836875 2.54921875 -13.859375 2.23046875 C-8.95417228 0.56269982 -5.22923205 0.00688008 0 0 Z " fill="#31D16D" transform="translate(160.734375,19.83203125)"/>
<path d="M0 0 C0.33 0 0.66 0 1 0 C1.24885011 10.76967978 1.4503431 21.64897069 -2 32 C-2.15269181 34.43780377 -2.25682697 36.85283901 -2.31640625 39.29296875 C-2.33718735 39.99899734 -2.35796844 40.70502594 -2.37937927 41.43244934 C-2.44467491 43.68403551 -2.50366647 45.93573662 -2.5625 48.1875 C-2.60570425 49.7155066 -2.64931916 51.24350164 -2.69335938 52.77148438 C-2.80033574 56.51420562 -2.90165922 60.2570423 -3 64 C-3.33 64 -3.66 64 -4 64 C-4.59311041 26.58537864 -4.59311041 26.58537864 -1.75390625 12.76953125 C-0.90500249 8.52501246 -0.41626382 4.30470142 0 0 Z " fill="#34D76E" transform="translate(142,124)"/>
<path d="M0 0 C0.66 0 1.32 0 2 0 C2.07403712 5.23271569 2.12854783 10.46512801 2.16479492 15.69824219 C2.17990173 17.47922067 2.20038835 19.26016184 2.22631836 21.04101562 C2.26261943 23.59774978 2.27970688 26.1539931 2.29296875 28.7109375 C2.30845261 29.50994476 2.32393646 30.30895203 2.33988953 31.13217163 C2.34057617 33.37646484 2.34057617 33.37646484 2 37 C1.01 37.66 0.02 38.32 -1 39 C-1.73343428 42.06556598 -1.73343428 42.06556598 -2 45 C-2.33 45 -2.66 45 -3 45 C-3.125 41.625 -3.125 41.625 -3 38 C-2.34 37.34 -1.68 36.68 -1 36 C-0.83708048 33.35844358 -0.79260979 30.8230233 -0.83984375 28.18359375 C-0.84504532 27.41193375 -0.85024689 26.64027374 -0.85560608 25.8452301 C-0.8734504 23.37579716 -0.90463391 20.90677522 -0.9375 18.4375 C-0.96506885 15.96469437 -0.98977325 13.4919456 -1.00868225 11.01905823 C-1.02099005 9.47875219 -1.0386422 7.93847832 -1.06199646 6.39830017 C-1.0789257 4.59882775 -1.04465834 2.79899784 -1 1 C-0.67 0.67 -0.34 0.34 0 0 Z " fill="#4AD47C" transform="translate(177,166)"/>
<path d="M0 0 C-2 0.66666667 -4 1.33333333 -6 2 C-6.66515625 2.22945312 -7.3303125 2.45890625 -8.015625 2.6953125 C-13.05398239 4.41705334 -18.12551476 5.86702721 -23.26953125 7.23828125 C-27.2310664 8.34343054 -31.11678273 9.6480651 -35 11 C-35 10.34 -35 9.68 -35 9 C-7.04606432 -4.19295997 -7.04606432 -4.19295997 0 0 Z " fill="#5FD18B" transform="translate(150,22)"/>
<path d="M0 0 C0.33 0 0.66 0 1 0 C1 6.93 1 13.86 1 21 C1.66 21 2.32 21 3 21 C3.13277344 22.05960938 3.26554688 23.11921875 3.40234375 24.2109375 C3.58053875 25.59898279 3.7589346 26.98700231 3.9375 28.375 C4.02451172 29.07367188 4.11152344 29.77234375 4.20117188 30.4921875 C4.66318128 34.36783575 4.66318128 34.36783575 6 38 C10.32371893 35.97366931 10.32371893 35.97366931 14 33 C13.40269644 36.34489996 12.42082645 38.57917355 10 41 C7.2130015 41.48772474 5.74640649 41.50359956 3.37890625 39.90625 C1.31847593 37.05783641 1.55045709 34.53501946 1.4375 31.0625 C1.28491997 26.66542089 0.95192449 23.87286606 -1 20 C-1.51526387 13.31903629 -1.22555797 6.58737411 0 0 Z " fill="#3DD875" transform="translate(157,184)"/>
<path d="M0 0 C1.125 3.75 1.125 3.75 0 6 C-0.12664878 8.82456225 -0.18949603 11.61254647 -0.1875 14.4375 C-0.18955444 15.65505981 -0.18955444 15.65505981 -0.19165039 16.8972168 C-0.14776708 22.3436231 0.35270272 27.43155808 1.66015625 32.73828125 C2.05869021 35.39059346 1.65396195 37.41616431 1 40 C-3.61779908 35.38220092 -3.14395836 27.70809111 -3.1875 21.5625 C-2.94256799 5.29901472 -2.94256799 5.29901472 0 0 Z " fill="#45D275" transform="translate(203,177)"/>
<path d="M0 0 C5.00845524 0.56928802 9.3367835 1.70456588 14.0625 3.4375 C21.30833442 5.99943639 28.34073225 7.20928977 36 8 C35.67 8.66 35.34 9.32 35 10 C28.01392276 10.31787005 22.44774397 9.31218448 15.8125 7.1875 C14.51795898 6.79594727 14.51795898 6.79594727 13.19726562 6.39648438 C8.56042343 4.9596664 4.28039282 3.33284911 0 1 C0 0.67 0 0.34 0 0 Z " fill="#4CC377" transform="translate(119,268)"/>
<path d="M0 0 C0 3.37646398 -0.4447264 5.01012058 -2 8 C-4.609375 10.45703125 -4.609375 10.45703125 -7.75 12.8125 C-8.77609375 13.60269531 -9.8021875 14.39289063 -10.859375 15.20703125 C-14.27816417 17.15880268 -16.13548495 17.38760855 -20 17 C-19.34 16.67 -18.68 16.34 -18 16 C-18 15.34 -18 14.68 -18 14 C-16.35 13.67 -14.7 13.34 -13 13 C-12.67 12.01 -12.34 11.02 -12 10 C-10.37609523 8.61490475 -8.69859667 7.29241051 -7 6 C-5.72300335 4.92393864 -4.45231306 3.84035609 -3.1875 2.75 C-2.58292969 2.22921875 -1.97835937 1.7084375 -1.35546875 1.171875 C-0.68451172 0.59179688 -0.68451172 0.59179688 0 0 Z " fill="#35CF6C" transform="translate(257,244)"/>
<path d="M0 0 C0.33 0 0.66 0 1 0 C1.33262101 7.28070423 1.58475311 14.4205766 -2 21 C-5.4352048 23.29013653 -6.985331 23.17842973 -11 23 C-11 21.68 -11 20.36 -11 19 C-12.32 19 -13.64 19 -15 19 C-15 17.02 -15 15.04 -15 13 C-14.34 12.67 -13.68 12.34 -13 12 C-12.67 13.98 -12.34 15.96 -12 18 C-9.36 18 -6.72 18 -4 18 C-0.96089654 12.053928 -0.34773428 6.63093294 0 0 Z " fill="#45C673" transform="translate(219,205)"/>
<path d="M0 0 C0.66 0.99 1.32 1.98 2 3 C1.171875 5.6015625 1.171875 5.6015625 -0.25 8.625 C-3.58404698 16.15613065 -5.35046409 22.76409393 -5 31 C-7.04371546 29.322967 -7.92353251 28.46127163 -8.36328125 25.80859375 C-8.34652344 25.02613281 -8.32976562 24.24367187 -8.3125 23.4375 C-8.30863281 22.65246094 -8.30476563 21.86742187 -8.30078125 21.05859375 C-8 19 -8 19 -6 17 C-5.32215008 14.66989091 -4.65583207 12.33640176 -4 10 C-3.34 9.01 -2.68 8.02 -2 7 C-1.29187186 4.67891331 -0.61975848 2.34622853 0 0 Z " fill="#58CA7F" transform="translate(121,175)"/>
<path d="M0 0 C6.31170592 -0.57153243 10.00009829 1.12022412 15.375 4.3125 C16.09816406 4.71662109 16.82132813 5.12074219 17.56640625 5.53710938 C22.86458333 8.59375 22.86458333 8.59375 24 12 C20.98782888 11.35550393 18.48344164 10.34977818 15.75 8.9375 C15.04359375 8.57527344 14.3371875 8.21304688 13.609375 7.83984375 C13.07828125 7.56269531 12.5471875 7.28554688 12 7 C12 6.34 12 5.68 12 5 C10.700625 4.8453125 10.700625 4.8453125 9.375 4.6875 C5.83316877 3.96601586 3.15687958 2.72876739 0 1 C0 0.67 0 0.34 0 0 Z " fill="#4ECA7D" transform="translate(219,28)"/>
<path d="M0 0 C0.66 0 1.32 0 2 0 C1.67 2.31 1.34 4.62 1 7 C0.34 7 -0.32 7 -1 7 C-1 7.66 -1 8.32 -1 9 C-2.50197356 10.24076077 -4.00612315 11.47921817 -5.53125 12.69140625 C-7.28660135 14.25534961 -8.18614864 15.80260134 -9 18 C-10.32 17.67 -11.64 17.34 -13 17 C-12.46375 16.360625 -11.9275 15.72125 -11.375 15.0625 C-8.81454777 11.76086423 -6.59199629 8.32614955 -4.3671875 4.79296875 C-3.91601562 4.20128906 -3.46484375 3.60960938 -3 3 C-2.34 3 -1.68 3 -1 3 C-0.67 2.01 -0.34 1.02 0 0 Z " fill="#2DD56B" transform="translate(78,61)"/>
<path d="M0 0 C1.3357457 3.77371512 0.72408671 6.85831347 0.0625 10.75 C-0.13214844 11.92046875 -0.32679688 13.0909375 -0.52734375 14.296875 C-0.76130859 15.63492188 -0.76130859 15.63492188 -1 17 C-1.66 17 -2.32 17 -3 17 C-3.12117187 18.26457031 -3.24234375 19.52914062 -3.3671875 20.83203125 C-3.53602147 22.49223198 -3.70531633 24.15238589 -3.875 25.8125 C-3.95363281 26.64587891 -4.03226563 27.47925781 -4.11328125 28.33789062 C-4.19707031 29.14033203 -4.28085938 29.94277344 -4.3671875 30.76953125 C-4.44050293 31.50792236 -4.51381836 32.24631348 -4.58935547 33.00708008 C-5 35 -5 35 -7 38 C-6.6430393 28.30051617 -5.80618859 19.35396197 -3 10 C-2.57267578 8.53433594 -2.57267578 8.53433594 -2.13671875 7.0390625 C-1.44162135 4.68693197 -0.73038197 2.34136633 0 0 Z " fill="#50DE83" transform="translate(187,112)"/>
<path d="M0 0 C0.33 0 0.66 0 1 0 C1.05482724 1.54125475 1.09316134 3.08309906 1.125 4.625 C1.14820313 5.48351562 1.17140625 6.34203125 1.1953125 7.2265625 C1 10 1 10 0.03125 12.8125 C-1.23000608 16.71092789 -1.44837916 20.30536148 -1.625 24.375 C-1.66367188 25.11105469 -1.70234375 25.84710938 -1.7421875 26.60546875 C-1.83557998 28.40327406 -1.9188371 30.20160108 -2 32 C-2.33 32 -2.66 32 -3 32 C-3.08742801 27.79179855 -3.14053641 23.58383224 -3.1875 19.375 C-3.21263672 18.18519531 -3.23777344 16.99539062 -3.26367188 15.76953125 C-3.35493909 4.87831038 -3.35493909 4.87831038 0 0 Z " fill="#38D872" transform="translate(207,144)"/>
<path d="M0 0 C0.5775 0.20625 1.155 0.4125 1.75 0.625 C-0.23 0.955 -2.21 1.285 -4.25 1.625 C-4.25 2.285 -4.25 2.945 -4.25 3.625 C-5.136875 3.91375 -6.02375 4.2025 -6.9375 4.5 C-8.85383491 5.15083073 -10.75975933 5.83963551 -12.625 6.625 C-14.93504189 7.50501596 -17.09777536 8.0778741 -19.5 8.625 C-20.7375 8.955 -21.975 9.285 -23.25 9.625 C-23.58 10.285 -23.91 10.945 -24.25 11.625 C-25.24 11.295 -26.23 10.965 -27.25 10.625 C-22.37155622 5.24030262 -15.25106801 3.35925258 -8.29296875 2.1171875 C-6.17668874 1.69081599 -6.17668874 1.69081599 -4.12890625 0.546875 C-2.25 -0.375 -2.25 -0.375 0 0 Z " fill="#34D771" transform="translate(141.25,24.375)"/>
<path d="M0 0 C4.13266802 0.93924273 5.67371312 1.54319836 8.1875 5.0625 C9.0846875 6.5165625 9.0846875 6.5165625 10 8 C10.99 8.33 11.98 8.66 13 9 C14.53515625 10.7421875 14.53515625 10.7421875 16.0625 12.875 C16.56910156 13.57367188 17.07570313 14.27234375 17.59765625 14.9921875 C18.75322511 16.64667885 19.88056594 18.32084891 21 20 C12.30038471 16.0263398 5.22732149 7.84098223 0 0 Z " fill="#4EBC79" transform="translate(71,231)"/>
<path d="M0 0 C2.33333333 2.33333333 4.66666667 4.66666667 7 7 C7.515625 7.495 8.03125 7.99 8.5625 8.5 C11.64283234 11.71425983 11.07923427 14.72134918 11 19 C10.34 19 9.68 19 9 19 C7.11304374 14.71146306 5.41807378 10.47238653 4 6 C3.34 6 2.68 6 2 6 C1.34 4.02 0.68 2.04 0 0 Z " fill="#3BCE70" transform="translate(277,73)"/>
<path d="M0 0 C2.475 0.495 2.475 0.495 5 1 C5 1.66 5 2.32 5 3 C6.2065625 3.1546875 6.2065625 3.1546875 7.4375 3.3125 C11.78574891 4.15163576 15.82866326 5.53804579 20 7 C20.99 7.33 21.98 7.66 23 8 C23 8.66 23 9.32 23 10 C25.475 10.495 25.475 10.495 28 11 C24.02706371 12.3243121 22.5763598 11.26698573 18.75 9.6875 C13.41986725 7.52531743 13.41986725 7.52531743 7.9375 5.8125 C5.36153656 5.09999947 3.23434098 4.46091525 1 3 C0.67 2.01 0.34 1.02 0 0 Z " fill="#2FD56C" transform="translate(112,262)"/>
<path d="M0 0 C0.33 0 0.66 0 1 0 C1.53477872 22.28244665 1.53477872 22.28244665 -4 29 C-2.83007154 19.30452907 -1.55220235 9.6434699 0 0 Z " fill="#7DD19C" transform="translate(140,118)"/>
<path d="M0 0 C1.32757546 3.98272639 0.3296542 6.0810192 -1 10 C-1.99 11.485 -1.99 11.485 -3 13 C-3.309375 14.175625 -3.61875 15.35125 -3.9375 16.5625 C-5 20 -5 20 -8 22 C-9.04127245 18.6868604 -9.18574123 17.39801692 -7.6875 14.1875 C-7.130625 13.465625 -6.57375 12.74375 -6 12 C-5.34 12 -4.68 12 -4 12 C-4 11.01 -4 10.02 -4 9 C-3.34 9 -2.68 9 -2 9 C-1.34 6.03 -0.68 3.06 0 0 Z " fill="#4FD67E" transform="translate(231,106)"/>
<path d="M0 0 C0.33 0 0.66 0 1 0 C1.0501123 0.58491211 1.10022461 1.16982422 1.15185547 1.77246094 C1.38451235 4.43245181 1.62962436 7.09115349 1.875 9.75 C1.95363281 10.67039063 2.03226563 11.59078125 2.11328125 12.5390625 C2.19707031 13.42851562 2.28085938 14.31796875 2.3671875 15.234375 C2.47716064 16.45979004 2.47716064 16.45979004 2.58935547 17.70996094 C3.02743233 20.1529817 3.70190574 21.88964793 5 24 C5.66 24.33 6.32 24.66 7 25 C6.01 25.99 5.02 26.98 4 28 C1.04722352 25.56074986 0.56620615 23.7299211 0 20 C-0.07649781 18.38038502 -0.10811681 16.75810555 -0.09765625 15.13671875 C-0.09443359 14.25048828 -0.09121094 13.36425781 -0.08789062 12.45117188 C-0.07951172 11.53916016 -0.07113281 10.62714844 -0.0625 9.6875 C-0.05798828 8.75615234 -0.05347656 7.82480469 -0.04882812 6.86523438 C-0.03709234 4.57675627 -0.02067363 2.28841192 0 0 Z " fill="#32D86B" transform="translate(199,192)"/>
<path d="M0 0 C0.33 0 0.66 0 1 0 C1.13760221 8.53133709 1.1747333 16.95734232 -2 25 C-2.33 25 -2.66 25 -3 25 C-3.05428973 22.77110504 -3.09292338 20.54182529 -3.125 18.3125 C-3.15980469 16.45044922 -3.15980469 16.45044922 -3.1953125 14.55078125 C-3.00793007 11.14416858 -2.40222564 9.05940139 -1 6 C-0.62406934 4.0075675 -0.28020455 2.0081326 0 0 Z " fill="#3AD976" transform="translate(182,141)"/>
<path d="M0 0 C0.33 0 0.66 0 1 0 C2.08369078 6.8677271 2.07232196 12.11290617 -0.23046875 18.6953125 C-1.26403867 21.79077572 -1.64819001 24.7633481 -2 28 C-2.33 28 -2.66 28 -3 28 C-3.18834887 21.53335548 -3.26263286 16.12241832 -1 10 C-0.54165755 6.67575802 -0.25126002 3.34572553 0 0 Z " fill="#53D080" transform="translate(208,144)"/>
<path d="M0 0 C0.99 0.33 1.98 0.66 3 1 C1.71173738 3.1271313 0.41957604 5.25171612 -0.875 7.375 C-1.42220703 8.27992187 -1.42220703 8.27992187 -1.98046875 9.203125 C-3.50946322 11.70511595 -4.91871354 13.91871354 -7 16 C-6.46059411 10.71382228 -5.39176094 6.69153106 -3 2 C-2.01 1.34 -1.02 0.68 0 0 Z " fill="#53CE7F" transform="translate(220,89)"/>
<path d="M0 0 C-3.40775161 2.27183441 -6.56452896 2.99916932 -10.5 3.8125 C-11.17675781 3.97169922 -11.85351562 4.13089844 -12.55078125 4.29492188 C-14.53125 4.70703125 -14.53125 4.70703125 -18 5 C-19.96875 3.57421875 -19.96875 3.57421875 -21 2 C-13.87049629 0.09879901 -7.36259293 -0.22424141 0 0 Z " fill="#4EC377" transform="translate(213,274)"/>
<path d="M0 0 C0.33 0 0.66 0 1 0 C1.29620821 4.44312313 0.8391204 7.91144137 -0.4375 12.1875 C-2.17592156 18.09157322 -2.68986581 23.87217628 -3 30 C-3.33 30 -3.66 30 -4 30 C-4.39666976 19.24584212 -3.42567587 10.2770276 0 0 Z " fill="#4FDB83" transform="translate(222,128)"/>
<path d="M0 0 C0.99 0.33 1.98 0.66 3 1 C4.31604502 4.2497966 4.11463327 7.61481372 4.09765625 11.078125 C4.09282227 12.81835938 4.09282227 12.81835938 4.08789062 14.59375 C4.07951172 15.8003125 4.07113281 17.006875 4.0625 18.25 C4.05798828 19.47203125 4.05347656 20.6940625 4.04882812 21.953125 C4.03704815 24.96879946 4.02059853 27.98437498 4 31 C3.34 31 2.68 31 2 31 C2.01047363 30.29391602 2.02094727 29.58783203 2.03173828 28.86035156 C2.0733479 25.65693734 2.09934204 22.45358004 2.125 19.25 C2.14175781 18.13882813 2.15851563 17.02765625 2.17578125 15.8828125 C2.18222656 14.81289062 2.18867188 13.74296875 2.1953125 12.640625 C2.20578613 11.65610352 2.21625977 10.67158203 2.22705078 9.65722656 C1.99209444 6.90747939 1.28956774 5.39554897 0 3 C0 2.01 0 1.02 0 0 Z " fill="#2DD86B" transform="translate(187,85)"/>
<path d="M0 0 C0.66 0.33 1.32 0.66 2 1 C1.67 1.99 1.34 2.98 1 4 C-0.65 4.33 -2.3 4.66 -4 5 C-4 5.66 -4 6.32 -4 7 C-4.94875 7.4125 -5.8975 7.825 -6.875 8.25 C-10.14721082 10.08243806 -10.58962165 10.74528073 -12 14 C-12.99 14.33 -13.98 14.66 -15 15 C-15.66 14.34 -16.32 13.68 -17 13 C-5.95890411 3 -5.95890411 3 0 3 C0 2.01 0 1.02 0 0 Z " fill="#4ED084" transform="translate(96,44)"/>
<path d="M0 0 C0.66 0 1.32 0 2 0 C5.50848663 7.30934715 5.30372936 13.99054432 5 22 C4.67 22 4.34 22 4 22 C3.67 16.72 3.34 11.44 3 6 C2.34 6 1.68 6 1 6 C1 7.98 1 9.96 1 12 C0.67 12 0.34 12 0 12 C0 8.04 0 4.08 0 0 Z " fill="#30C569" transform="translate(44,160)"/>
<path d="M0 0 C2.33339656 2.33339656 2.2853492 2.8927249 2.44921875 6.0625 C2.49240234 6.85914063 2.53558594 7.65578125 2.58007812 8.4765625 C2.61552734 9.30929688 2.65097656 10.14203125 2.6875 11 C2.73455078 11.83273438 2.78160156 12.66546875 2.83007812 13.5234375 C3.13626427 19.72747147 3.13626427 19.72747147 2 22 C1.34 22 0.68 22 0 22 C0 23.65 0 25.3 0 27 C-0.66 27 -1.32 27 -2 27 C-1.125 20.125 -1.125 20.125 0 19 C0.08651611 17.58429877 0.10704904 16.164405 0.09765625 14.74609375 C0.09443359 13.89208984 0.09121094 13.03808594 0.08789062 12.15820312 C0.07951172 11.26037109 0.07113281 10.36253906 0.0625 9.4375 C0.05798828 8.53580078 0.05347656 7.63410156 0.04882812 6.70507812 C0.03700225 4.46998686 0.0205222 2.23502563 0 0 Z " fill="#33D76F" transform="translate(220,197)"/>
<path d="M0 0 C0.66 0 1.32 0 2 0 C2.86140345 12.9019095 2.86140345 12.9019095 -0.5 16.8125 C-1.7375 17.8953125 -1.7375 17.8953125 -3 19 C-3.33 18.34 -3.66 17.68 -4 17 C-3.26630239 15.09905619 -2.52927441 13.19927878 -1.76953125 11.30859375 C-0.53795333 7.61385998 -0.25969091 3.868499 0 0 Z " fill="#5EC580" transform="translate(135,179)"/>
<path d="M0 0 C-4.36201616 1.67769852 -8.32932081 2.33708607 -12.94921875 2.65625 C-15.30429752 2.90710085 -15.30429752 2.90710085 -18 5 C-18.99 5 -19.98 5 -21 5 C-21 4.34 -21 3.68 -21 3 C-5.39271255 -3.24291498 -5.39271255 -3.24291498 0 0 Z " fill="#6CCF94" transform="translate(150,22)"/>
<path d="M0 0 C2.31 0 4.62 0 7 0 C4.61664713 2.67438936 2.12963852 4.15158012 -1.0625 5.75 C-2.37927734 6.42289062 -2.37927734 6.42289062 -3.72265625 7.109375 C-4.47417969 7.40328125 -5.22570312 7.6971875 -6 8 C-6.66 7.67 -7.32 7.34 -8 7 C-5.59563974 3.39345961 -4.05320393 3.14547068 0 2 C0 1.34 0 0.68 0 0 Z " fill="#45BE6F" transform="translate(234,261)"/>
<path d="M0 0 C2.62035981 3.00995456 3.37309634 4.82901753 3.328125 8.80859375 C3.32296875 9.72060547 3.3178125 10.63261719 3.3125 11.57226562 C3.291875 12.51779297 3.27125 13.46332031 3.25 14.4375 C3.24226562 15.84999023 3.24226562 15.84999023 3.234375 17.29101562 C3.18485645 21.67650212 2.95499662 25.70586438 2 30 C1.34 30 0.68 30 0 30 C0.16242188 29.18144531 0.32484375 28.36289063 0.4921875 27.51953125 C1.06715705 23.53455 1.14693525 19.70530723 1.125 15.6875 C1.12886719 14.95982422 1.13273438 14.23214844 1.13671875 13.48242188 C1.45352815 9.94823393 1.45352815 9.94823393 0 7 C-0.04092937 4.66702567 -0.04241723 2.33294775 0 0 Z " fill="#46DB7A" transform="translate(187,88)"/>
<path d="M0 0 C0 0.66 0 1.32 0 2 C-1.98 2.33 -3.96 2.66 -6 3 C-6 3.66 -6 4.32 -6 5 C-6.99 5 -7.98 5 -9 5 C-9.33 5.66 -9.66 6.32 -10 7 C-10.25 4.6875 -10.25 4.6875 -10 2 C-6.86993817 -1.6116098 -4.40477201 -1.101193 0 0 Z " fill="#2ED76B" transform="translate(186,74)"/>
<path d="M0 0 C0.33 0 0.66 0 1 0 C1.0543965 2.37531394 1.09385864 4.74935883 1.125 7.125 C1.15013672 8.12273437 1.15013672 8.12273437 1.17578125 9.140625 C1.21847278 13.49516056 0.59996217 16.95600114 -1 21 C-1.33 21 -1.66 21 -2 21 C-2.22424141 13.63740707 -1.90120099 7.12950371 0 0 Z " fill="#56DD87" transform="translate(167,139)"/>
<path d="M0 0 C0.33 0 0.66 0 1 0 C1.09688221 5.44693314 1.12862175 10.63904667 0 16 C-1.32 16.33 -2.64 16.66 -4 17 C-4 14.03 -4 11.06 -4 8 C-3.67 8 -3.34 8 -3 8 C-2.67 9.65 -2.34 11.3 -2 13 C-1.34 8.71 -0.68 4.42 0 0 Z " fill="#35C86D" transform="translate(48,117)"/>
<path d="M0 0 C0.33 0 0.66 0 1 0 C1.05398987 2.27057377 1.09278742 4.54151288 1.125 6.8125 C1.14820313 8.07707031 1.17140625 9.34164062 1.1953125 10.64453125 C1 14 1 14 -1 17 C-3.6580758 10.56465858 -2.39462284 6.39853522 0 0 Z " fill="#39D66F" transform="translate(300,160)"/>
<path d="M0 0 C1 2 1 2 0.07421875 4.96875 C-0.38339844 6.1340625 -0.84101562 7.299375 -1.3125 8.5 C-1.76238281 9.6653125 -2.21226563 10.830625 -2.67578125 12.03125 C-4 15 -4 15 -6 17 C-5.71515154 15.26969709 -5.42180062 13.54079286 -5.125 11.8125 C-4.96257813 10.84957031 -4.80015625 9.88664062 -4.6328125 8.89453125 C-4.01426342 6.06524192 -3.25183458 3.61030692 -2 1 C-1.34 0.67 -0.68 0.34 0 0 Z " fill="#50D280" transform="translate(57,90)"/>
<path d="M0 0 C0.66 0.33 1.32 0.66 2 1 C0.625 2.5 0.625 2.5 -1 4 C-1.66 4 -2.32 4 -3 4 C-3 4.66 -3 5.32 -3 6 C-3.99 6 -4.98 6 -6 6 C-6 6.99 -6 7.98 -6 9 C-8.90600261 10.25664978 -10.79604584 11 -14 11 C-12.23055495 9.53998252 -10.45939429 8.08204407 -8.6875 6.625 C-7.70136719 5.81289063 -6.71523437 5.00078125 -5.69921875 4.1640625 C-3 2 -3 2 0 0 Z " fill="#65C287" transform="translate(102,38)"/>
<path d="M0 0 C1.485 0.99 1.485 0.99 3 2 C3.29296875 5.0390625 3.29296875 5.0390625 3.1875 8.625 C3.16042969 9.81351563 3.13335937 11.00203125 3.10546875 12.2265625 C3.07066406 13.14179687 3.03585938 14.05703125 3 15 C2.01 15.33 1.02 15.66 0 16 C0 10.72 0 5.44 0 0 Z " fill="#3AD971" transform="translate(232,90)"/>
<path d="M0 0 C3.95602172 4.85511756 5.29212746 8.71925967 5 15 C0.98187937 10.84794202 -0.40470775 6.64944013 -1 1 C-0.67 0.67 -0.34 0.34 0 0 Z " fill="#33D56F" transform="translate(289,92)"/>
<path d="M0 0 C0 0.66 0 1.32 0 2 C-4.29 2.66 -8.58 3.32 -13 4 C-11 0 -11 0 -9.3125 -0.8125 C-6.10895912 -1.07224656 -3.15523756 -0.54609881 0 0 Z " fill="#30CF68" transform="translate(231,86)"/>
<path d="M0 0 C2.97 0.495 2.97 0.495 6 1 C4.66666667 1.66666667 3.33333333 2.33333333 2 3 C1.3915625 3.350625 0.783125 3.70125 0.15625 4.0625 C-2.32604797 5.14175999 -4.05844993 5.20416324 -6.75 5.125 C-7.54921875 5.10695313 -8.3484375 5.08890625 -9.171875 5.0703125 C-9.77515625 5.04710937 -10.3784375 5.02390625 -11 5 C-8.28817788 2.39665076 -7.10866187 2.00543309 -3.25 1.8125 C-2.1775 1.874375 -1.105 1.93625 0 2 C0 1.34 0 0.68 0 0 Z " fill="#31D56B" transform="translate(195,273)"/>
<path d="M0 0 C0.66 0.33 1.32 0.66 2 1 C1.79503906 1.71285156 1.59007812 2.42570312 1.37890625 3.16015625 C-0.10620647 8.43976749 -1.39412346 13.54711116 -2 19 C-2.33 19 -2.66 19 -3 19 C-3.35368021 11.87399867 -2.95671348 6.52940894 0 0 Z " fill="#2AD868" transform="translate(169,92)"/>
<path d="M0 0 C2.31 0 4.62 0 7 0 C6.34 0.66 5.68 1.32 5 2 C4.67 2.99 4.34 3.98 4 5 C1.36 4.67 -1.28 4.34 -4 4 C-3.01 3.67 -2.02 3.34 -1 3 C-0.67 2.01 -0.34 1.02 0 0 Z " fill="#36D76F" transform="translate(209,270)"/>
<path d="M0 0 C0.33 0 0.66 0 1 0 C1.33 2.64 1.66 5.28 2 8 C1.34 8 0.68 8 0 8 C-0.12375 8.94875 -0.2475 9.8975 -0.375 10.875 C-1 14 -1 14 -3 16 C-3.25 9.375 -3.25 9.375 -1 6 C-0.60986284 4.0103005 -0.26797351 2.00980131 0 0 Z " fill="#47D67D" transform="translate(127,151)"/>
<path d="M0 0 C0.66 0.66 1.32 1.32 2 2 C1.01 2.33 0.02 2.66 -1 3 C-0.67 2.01 -0.34 1.02 0 0 Z M-1 3 C-4.20336822 5.83374881 -6.78087253 6.5205537 -11 7 C-7.66064924 3.50886057 -5.84725717 2.8724406 -1 3 Z M-14 7 C-13.01 7.33 -12.02 7.66 -11 8 C-12.98 8.99 -12.98 8.99 -15 10 C-14.67 9.01 -14.34 8.02 -14 7 Z " fill="#29D569" transform="translate(118,33)"/>
<path d="M0 0 C0.33 0.99 0.66 1.98 1 3 C1.66 3 2.32 3 3 3 C3.33 5.64 3.66 8.28 4 11 C3.01 11.495 3.01 11.495 2 12 C0.00214565 7.8794254 -0.17835515 4.54805635 0 0 Z " fill="#55D688" transform="translate(201,205)"/>
<path d="M0 0 C0.33 0 0.66 0 1 0 C1 5.61 1 11.22 1 17 C0.34 17.33 -0.32 17.66 -1 18 C-1.66 17.67 -2.32 17.34 -3 17 C-2.68289062 16.47921875 -2.36578125 15.9584375 -2.0390625 15.421875 C-0.71079489 12.32591291 -0.57635753 9.60595879 -0.375 6.25 C-0.30023438 5.07953125 -0.22546875 3.9090625 -0.1484375 2.703125 C-0.09945312 1.81109375 -0.05046875 0.9190625 0 0 Z " fill="#49D07B" transform="translate(164,155)"/>
<path d="M0 0 C1.98 0.99 1.98 0.99 4 2 C3.67 2.33 3.34 2.66 3 3 C2.76807135 4.51469448 2.58784762 6.03754562 2.4375 7.5625 C2.35371094 8.38878906 2.26992187 9.21507813 2.18359375 10.06640625 C2.12300781 10.70449219 2.06242187 11.34257813 2 12 C1.34 12 0.68 12 0 12 C0 8.04 0 4.08 0 0 Z " fill="#53DE82" transform="translate(125,84)"/>
<path d="M0 0 C2.97 0.99 5.94 1.98 9 3 C9 3.66 9 4.32 9 5 C9.61875 5.12375 10.2375 5.2475 10.875 5.375 C13 6 13 6 15 8 C10.96522658 7.41841104 8.14758799 6.13243941 4.6875 4 C3.80449219 3.46375 2.92148438 2.9275 2.01171875 2.375 C1.34785156 1.92125 0.68398437 1.4675 0 1 C0 0.67 0 0.34 0 0 Z " fill="#4ABB74" transform="translate(104,260)"/>
<path d="M0 0 C1.00796724 3.16069729 0.97083624 5.33511958 0.25 8.5625 C0.09015625 9.32691406 -0.0696875 10.09132813 -0.234375 10.87890625 C-1.08787329 13.24344488 -2.11184497 14.37639417 -4 16 C-2.84941444 10.60204011 -1.57578241 5.29012667 0 0 Z " fill="#5FDF8C" transform="translate(187,112)"/>
<path d="M0 0 C0.33 0 0.66 0 1 0 C1.35083068 4.91162955 0.37454252 7.72582346 -2 12 C-2.33 12.99 -2.66 13.98 -3 15 C-3.66 14.67 -4.32 14.34 -5 14 C-3.45730076 9.27934033 -1.92205381 4.58335908 0 0 Z " fill="#2EDA6D" transform="translate(137,188)"/>
<path d="M0 0 C0.99 0.33 1.98 0.66 3 1 C3 1.66 3 2.32 3 3 C3.99 3.33 4.98 3.66 6 4 C6 4.66 6 5.32 6 6 C7.32 6.66 8.64 7.32 10 8 C10 8.99 10 9.98 10 11 C8.32742645 9.5484451 6.66208242 8.08855591 5 6.625 C3.6078125 5.40683594 3.6078125 5.40683594 2.1875 4.1640625 C1.465625 3.44992188 0.74375 2.73578125 0 2 C0 1.34 0 0.68 0 0 Z " fill="#3FD377" transform="translate(250,45)"/>
<path d="M0 0 C3.33333333 1.66666667 6.66666667 3.33333333 10 5 C10 5.66 10 6.32 10 7 C3.47692308 5.64615385 3.47692308 5.64615385 1.0625 2.375 C0.711875 1.59125 0.36125 0.8075 0 0 Z " fill="#3BCF72" transform="translate(98,254)"/>
<path d="M0 0 C0.99 0 1.98 0 3 0 C2.88490339 1.41750563 2.75746342 2.83401169 2.625 4.25 C2.55539062 5.03890625 2.48578125 5.8278125 2.4140625 6.640625 C2 9 2 9 0 13 C0 8.71 0 4.42 0 0 Z " fill="#3DBB61" transform="translate(298,174)"/>
<path d="M0 0 C1.90318884 2.85478326 2.4619099 4.41941308 3.125 7.6875 C3.29257812 8.49574219 3.46015625 9.30398437 3.6328125 10.13671875 C3.75398438 10.75160156 3.87515625 11.36648437 4 12 C3.67 11.34 3.34 10.68 3 10 C2.34 10 1.68 10 1 10 C-0.60725635 6.78548731 -0.05748185 3.56387464 0 0 Z " fill="#52CA83" transform="translate(48,182)"/>
<path d="M0 0 C0.33 0 0.66 0 1 0 C0.42978066 5.3503559 -0.20734361 10.67787852 -1 16 C-1.33 16 -1.66 16 -2 16 C-2 12.04 -2 8.08 -2 4 C-1.34 4 -0.68 4 0 4 C0 2.68 0 1.36 0 0 Z " fill="#5EDC8B" transform="translate(207,156)"/>
<path d="M0 0 C-0.33 0.66 -0.66 1.32 -1 2 C-3.97 2 -6.94 2 -10 2 C-10 1.34 -10 0.68 -10 0 C-6.30581799 -1.231394 -3.7943739 -0.64432764 0 0 Z " fill="#41CB7E" transform="translate(155,276)"/>
<path d="M0 0 C2.60334924 2.71182212 2.99456691 3.89133813 3.1875 7.75 C3.0946875 9.35875 3.0946875 9.35875 3 11 C2.01 10.34 1.02 9.68 0 9 C-0.29296875 6.8359375 -0.29296875 6.8359375 -0.1875 4.375 C-0.16042969 3.55773437 -0.13335937 2.74046875 -0.10546875 1.8984375 C-0.05326172 0.95871094 -0.05326172 0.95871094 0 0 Z " fill="#4ECA7F" transform="translate(200,197)"/>
<path d="M0 0 C-1.15093722 3.45281166 -2.3205993 4.38082163 -5.0625 6.6875 C-5.79597656 7.31011719 -6.52945313 7.93273437 -7.28515625 8.57421875 C-7.85105469 9.04472656 -8.41695313 9.51523438 -9 10 C-9 7 -9 7 -7.5390625 5.17578125 C-6.90742187 4.56089844 -6.27578125 3.94601563 -5.625 3.3125 C-4.68527344 2.37857422 -4.68527344 2.37857422 -3.7265625 1.42578125 C-2 0 -2 0 0 0 Z " fill="#56C37E" transform="translate(81,58)"/>
<path d="M0 0 C-3.09902323 3.09902323 -5.39147385 2.9898579 -9.75 3.0625 C-10.8225 3.041875 -11.895 3.02125 -13 3 C-13 2.67 -13 2.34 -13 2 C-12.05125 1.690625 -11.1025 1.38125 -10.125 1.0625 C-4.12591241 -0.97718978 -4.12591241 -0.97718978 0 0 Z " fill="#46DA7C" transform="translate(157,21)"/>
<path d="M0 0 C2 3.75 2 3.75 2 6 C3.32 6.66 4.64 7.32 6 8 C3.69 7.67 1.38 7.34 -1 7 C-1.04254356 5.00045254 -1.04080783 2.99958364 -1 1 C-0.67 0.67 -0.34 0.34 0 0 Z " fill="#46C071" transform="translate(205,217)"/>
<path d="M0 0 C3.27723056 1.05339554 4.60460094 2.63763259 6.3125 5.5 C7.1478125 7.2325 7.1478125 7.2325 8 9 C7.67 9.66 7.34 10.32 7 11 C5.82750647 9.54634731 4.66216184 8.08692581 3.5 6.625 C2.52546875 5.40683594 2.52546875 5.40683594 1.53125 4.1640625 C0 2 0 2 0 0 Z " fill="#4AB673" transform="translate(63,219)"/>
<path d="M0 0 C0.66 0 1.32 0 2 0 C1.67 2.64 1.34 5.28 1 8 C0.01 8.33 -0.98 8.66 -2 9 C-1.34 6.03 -0.68 3.06 0 0 Z " fill="#31D86E" transform="translate(222,135)"/>
<path d="M0 0 C0.33 0 0.66 0 1 0 C1.28571429 7.42857143 1.28571429 7.42857143 -1 11 C-1.66 11 -2.32 11 -3 11 C-1.125 3.375 -1.125 3.375 0 0 Z " fill="#5BDD8A" transform="translate(222,128)"/>
<path d="M0 0 C0.33 0.99 0.66 1.98 1 3 C0.67 3.66 0.34 4.32 0 5 C-0.99 5 -1.98 5 -3 5 C-3.33 5.99 -3.66 6.98 -4 8 C-4.99 8.33 -5.98 8.66 -7 9 C-5.44499019 5.18315774 -2.96404505 2.80804268 0 0 Z " fill="#34D270" transform="translate(271,231)"/>
<path d="M0 0 C0.66 0.33 1.32 0.66 2 1 C1.40844669 2.31823302 0.80128537 3.62947051 0.1875 4.9375 C-0.31716797 6.03384766 -0.31716797 6.03384766 -0.83203125 7.15234375 C-2 9 -2 9 -5 10 C-4.42655063 7.13275314 -4.1385485 6.1385485 -2 4 C-1.30251417 2.68252676 -0.63040043 1.35085807 0 0 Z " fill="#2DD56C" transform="translate(282,214)"/>
<path d="M0 0 C0 3 0 3 -1 5 C-1.22467831 6.53668865 -1.40796805 8.07968054 -1.5625 9.625 C-1.64628906 10.44226563 -1.73007813 11.25953125 -1.81640625 12.1015625 C-1.87699219 12.72804687 -1.93757813 13.35453125 -2 14 C-2.33 14 -2.66 14 -3 14 C-3.08082094 12.04233719 -3.13910778 10.08373272 -3.1875 8.125 C-3.22230469 7.03445312 -3.25710937 5.94390625 -3.29296875 4.8203125 C-3.19628906 3.88960937 -3.09960938 2.95890625 -3 2 C-2.01 1.34 -1.02 0.68 0 0 Z " fill="#31D86E" transform="translate(126,155)"/>
<path d="M0 0 C0.33 0 0.66 0 1 0 C0.91291331 1.45945288 0.80473093 2.91765868 0.6875 4.375 C0.62949219 5.18710938 0.57148437 5.99921875 0.51171875 6.8359375 C0 9 0 9 -3 11 C-2.32829194 7.1936543 -1.27253436 3.64793184 0 0 Z " fill="#34D872" transform="translate(52,105)"/>
<path d="M0 0 C-1 3 -1 3 -2.84765625 4.16796875 C-3.57855469 4.50441406 -4.30945313 4.84085938 -5.0625 5.1875 C-5.79597656 5.53167969 -6.52945313 5.87585937 -7.28515625 6.23046875 C-8.13400391 6.61138672 -8.13400391 6.61138672 -9 7 C-9 5 -9 5 -6.75 2.375 C-4 0 -4 0 0 0 Z " fill="#4FD781" transform="translate(108,37)"/>
<path d="M0 0 C3.72284268 0.50308685 5.57327341 1.11103977 8 4 C8.66 4.66 9.32 5.32 10 6 C6.68437443 5.44739574 3.84937793 4.83174295 1 3 C0.67 2.01 0.34 1.02 0 0 Z " fill="#3AD675" transform="translate(112,262)"/>
<path d="M0 0 C-5.75 5 -5.75 5 -8 5 C-7.8125 3.125 -7.8125 3.125 -7 1 C-2.66666667 -1.33333333 -2.66666667 -1.33333333 0 0 Z " fill="#44C173" transform="translate(256,251)"/>
<path d="M0 0 C3.76547669 3.76547669 3.91348469 5.90173585 5 11 C4.01 10.67 3.02 10.34 2 10 C1.34 6.7 0.68 3.4 0 0 Z " fill="#34D46E" transform="translate(54,197)"/>
<path d="M0 0 C5.66153846 1.47692308 5.66153846 1.47692308 7.375 4.125 C7.684375 5.053125 7.684375 5.053125 8 6 C4.74456771 5.65120368 3.98126893 4.97866739 1.75 2.4375 C1.1725 1.633125 0.595 0.82875 0 0 Z " fill="#46C074" transform="translate(71,231)"/>
<path d="M0 0 C0.33 0 0.66 0 1 0 C1.25 2.75 1.25 2.75 1 6 C-1 8.375 -1 8.375 -3 10 C-2.39009109 6.44219804 -1.4216319 3.3171411 0 0 Z " fill="#38D973" transform="translate(119,176)"/>
<path d="M0 0 C0.75 1.75 0.75 1.75 1 4 C-0.8125 6.125 -0.8125 6.125 -3 8 C-3.66 8.66 -4.32 9.32 -5 10 C-4.49701212 5.59885603 -2.91227269 3.28804981 0 0 Z " fill="#37D972" transform="translate(64,80)"/>
<path d="M0 0 C0.99 0 1.98 0 3 0 C4.35439668 2.70879335 4.06501451 5.00933268 4 8 C3.34 8 2.68 8 2 8 C1.34 5.36 0.68 2.72 0 0 Z " fill="#64D785" transform="translate(182,78)"/>
<path d="M0 0 C0.33 0 0.66 0 1 0 C1.36923077 7.38461538 1.36923077 7.38461538 -0.5 10.5 C-0.995 10.995 -1.49 11.49 -2 12 C-2.26252625 7.66831683 -1.29243536 4.1196377 0 0 Z " fill="#29D667" transform="translate(203,169)"/>
<path d="M0 0 C0.93423645 3.01031744 1.04449911 3.86650268 0 7 C-0.99 7.33 -1.98 7.66 -3 8 C-2.45276317 4.62537285 -1.9451 2.91765 0 0 Z " fill="#31D96E" transform="translate(175,81)"/>
<path d="M0 0 C1.65 0 3.3 0 5 0 C5 0.66 5 1.32 5 2 C3.68 2 2.36 2 1 2 C1 2.66 1 3.32 1 4 C0.01 4 -0.98 4 -2 4 C-1.34 2.68 -0.68 1.36 0 0 Z " fill="#3BCF6D" transform="translate(179,75)"/>
</svg>
